0, 0, Header, 0, 1, 96
1, 0, Start_track
1, 0, System_exclusive, 5, 126, 127, 9, 1, 247
1, 0, Tempo, 779220
1, 0, Program_c, 0, 32
1, 0, Control_c, 0, 7, 127
1, 0, Program_c, 1, 29
1, 0, Control_c, 1, 7, 100
1, 0, Program_c, 2, 17
1, 0, Control_c, 2, 7, 79
1, 0, Program_c, 3, 53
1, 0, Control_c, 3, 7, 100
1, 0, Program_c, 9, 0
1, 0, Control_c, 9, 7, 118
1, 0, Key_signature, 0, "major"
1, 0, SMPTE_offset, 96, 0, 0, 0, 0
1, 0, Time_signature, 4, 2, 24, 8
1, 0, Time_signature, 4, 2, 24, 8
1, 0, Time_signature, 4, 2, 24, 8
1, 0, Time_signature, 4, 2, 24, 8
1, 0, Time_signature, 4, 2, 24, 8
1, 0, MIDI_port, 0
1, 0, Control_c, 0, 10, 68
1, 0, MIDI_port, 0
1, 0, Control_c, 1, 10, 75
1, 0, MIDI_port, 0
1, 0, Control_c, 2, 10, 71
1, 0, MIDI_port, 0
1, 0, Control_c, 9, 10, 68
1, 0, Note_on_c, 9, 31, 105
1, 0, Note_on_c, 9, 31, 105
1, 0, MIDI_port, 0
1, 0, Control_c, 3, 10, 45
1, 1, Note_off_c, 9, 31, 0
1, 95, Note_on_c, 9, 31, 99
1, 172, Note_off_c, 9, 31, 0
1, 191, Note_on_c, 2, 79, 106
1, 191, Note_on_c, 2, 71, 101
1, 191, Note_on_c, 2, 67, 104
1, 191, Note_on_c, 2, 55, 99
1, 238, Note_off_c, 2, 55, 0
1, 239, Note_off_c, 2, 67, 0
1, 239, Note_on_c, 2, 57, 101
1, 239, Note_on_c, 2, 69, 95
1, 239, Note_on_c, 2, 72, 89
1, 240, Note_off_c, 2, 71, 0
1, 287, Note_on_c, 2, 71, 84
1, 287, Note_on_c, 2, 74, 88
1, 287, Note_on_c, 2, 59, 101
1, 288, Note_off_c, 2, 72, 0
1, 289, Note_off_c, 2, 69, 0
1, 294, Note_off_c, 2, 57, 0
1, 333, Note_off_c, 2, 59, 0
1, 335, Note_off_c, 2, 74, 0
1, 335, Note_on_c, 2, 55, 90
1, 335, Note_on_c, 2, 67, 101
1, 381, Note_off_c, 2, 55, 0
1, 381, Note_off_c, 2, 67, 0
1, 383, Note_off_c, 2, 71, 0
1, 383, Note_on_c, 0, 36, 123
1, 383, Note_on_c, 2, 60, 107
1, 383, Note_on_c, 2, 76, 97
1, 383, Note_on_c, 2, 72, 84
1, 383, Note_on_c, 2, 71, 79
1, 383, Note_on_c, 9, 63, 70
1, 383, Note_on_c, 9, 42, 119
1, 384, Note_off_c, 2, 71, 0
1, 398, Note_off_c, 9, 63, 0
1, 399, Note_off_c, 9, 42, 0
1, 411, Note_on_c, 9, 63, 63
1, 411, Note_on_c, 9, 42, 105
1, 420, Note_off_c, 9, 42, 0
1, 421, Note_off_c, 9, 63, 0
1, 431, Note_on_c, 9, 69, 84
1, 431, Note_on_c, 9, 54, 90
1, 431, Note_on_c, 9, 62, 76
1, 431, Note_on_c, 9, 42, 127
1, 446, Note_off_c, 9, 62, 0
1, 446, Note_off_c, 9, 42, 0
1, 450, Note_off_c, 9, 69, 0
1, 455, Note_off_c, 9, 54, 0
1, 459, Note_on_c, 9, 42, 112
1, 468, Note_off_c, 9, 42, 0
1, 479, Note_on_c, 9, 63, 72
1, 479, Note_on_c, 9, 46, 119
1, 479, Note_on_c, 9, 37, 127
1, 479, Note_on_c, 9, 35, 127
1, 491, Note_off_c, 9, 35, 0
1, 494, Note_off_c, 9, 63, 0
1, 495, Note_off_c, 9, 37, 0
1, 496, Note_off_c, 9, 46, 0
1, 507, Note_on_c, 9, 44, 112
1, 516, Note_off_c, 9, 44, 0
1, 527, Note_on_c, 9, 69, 95
1, 527, Note_on_c, 9, 54, 88
1, 527, Note_on_c, 9, 42, 127
1, 543, Note_off_c, 9, 42, 0
1, 549, Note_off_c, 9, 69, 0
1, 551, Note_off_c, 9, 54, 0
1, 555, Note_on_c, 9, 63, 74
1, 555, Note_on_c, 9, 42, 54
1, 564, Note_off_c, 9, 42, 0
1, 565, Note_off_c, 9, 63, 0
1, 572, Note_off_c, 2, 72, 0
1, 575, Note_off_c, 2, 76, 0
1, 575, Note_on_c, 0, 35, 119
1, 575, Note_on_c, 2, 59, 101
1, 575, Note_on_c, 2, 74, 106
1, 575, Note_on_c, 2, 71, 93
1, 575, Note_on_c, 9, 63, 30
1, 575, Note_on_c, 9, 42, 107
1, 577, Note_off_c, 0, 36, 0
1, 580, Note_off_c, 2, 60, 0
1, 589, Note_off_c, 9, 63, 0
1, 591, Note_off_c, 9, 42, 0
1, 603, Note_on_c, 9, 63, 42
1, 603, Note_on_c, 9, 42, 108
1, 612, Note_off_c, 9, 42, 0
1, 613, Note_off_c, 9, 63, 0
1, 623, Note_on_c, 9, 69, 90
1, 623, Note_on_c, 9, 54, 85
1, 623, Note_on_c, 9, 62, 76
1, 623, Note_on_c, 9, 42, 127
1, 638, Note_off_c, 9, 62, 0
1, 639, Note_off_c, 9, 42, 0
1, 645, Note_off_c, 9, 69, 0
1, 647, Note_off_c, 9, 54, 0
1, 651, Note_on_c, 9, 42, 115
1, 661, Note_off_c, 9, 42, 0
1, 671, Note_on_c, 9, 63, 80
1, 671, Note_on_c, 9, 46, 116
1, 671, Note_on_c, 9, 37, 127
1, 671, Note_on_c, 9, 35, 126
1, 683, Note_off_c, 9, 35, 0
1, 686, Note_off_c, 9, 63, 0
1, 686, Note_off_c, 9, 37, 0
1, 687, Note_off_c, 9, 46, 0
1, 699, Note_on_c, 9, 42, 60
1, 708, Note_off_c, 9, 42, 0
1, 719, Note_on_c, 9, 69, 95
1, 719, Note_on_c, 9, 54, 88
1, 719, Note_on_c, 9, 42, 127
1, 735, Note_off_c, 9, 42, 0
1, 737, Note_off_c, 9, 69, 0
1, 743, Note_off_c, 9, 54, 0
1, 747, Note_on_c, 9, 42, 115
1, 756, Note_off_c, 9, 42, 0
1, 764, Note_off_c, 2, 71, 0
1, 765, Note_off_c, 2, 74, 0
1, 766, Note_off_c, 2, 59, 0
1, 767, Note_off_c, 2, 79, 0
1, 767, Note_off_c, 0, 35, 0
1, 767, Note_on_c, 0, 33, 112
1, 767, Note_on_c, 2, 72, 85
1, 767, Note_on_c, 2, 76, 95
1, 767, Note_on_c, 2, 57, 101
1, 767, Note_on_c, 2, 69, 95
1, 767, Note_on_c, 9, 63, 72
1, 767, Note_on_c, 9, 42, 114
1, 782, Note_off_c, 9, 63, 0
1, 783, Note_off_c, 9, 42, 0
1, 795, Note_on_c, 9, 63, 72
1, 795, Note_on_c, 9, 44, 117
1, 804, Note_off_c, 9, 44, 0
1, 805, Note_off_c, 9, 63, 0
1, 815, Note_on_c, 9, 69, 95
1, 815, Note_on_c, 9, 54, 90
1, 815, Note_on_c, 9, 62, 74
1, 815, Note_on_c, 9, 42, 127
1, 830, Note_off_c, 9, 62, 0
1, 831, Note_off_c, 9, 42, 0
1, 834, Note_off_c, 9, 69, 0
1, 839, Note_off_c, 9, 54, 0
1, 843, Note_on_c, 9, 42, 116
1, 845, Note_off_c, 0, 33, 0
1, 851, Note_off_c, 2, 69, 0
1, 852, Note_off_c, 2, 57, 0
1, 852, Note_off_c, 9, 42, 0
1, 855, Note_off_c, 2, 76, 0
1, 863, Note_on_c, 0, 33, 110
1, 863, Note_on_c, 2, 69, 99
1, 863, Note_on_c, 2, 76, 84
1, 863, Note_on_c, 2, 57, 101
1, 863, Note_on_c, 9, 63, 75
1, 863, Note_on_c, 9, 46, 112
1, 863, Note_on_c, 9, 37, 123
1, 863, Note_on_c, 9, 35, 124
1, 876, Note_off_c, 9, 35, 0
1, 878, Note_off_c, 9, 63, 0
1, 879, Note_off_c, 9, 46, 0
1, 879, Note_off_c, 9, 37, 0
1, 883, Note_off_c, 0, 33, 0
1, 884, Note_off_c, 2, 57, 0
1, 891, Note_on_c, 9, 63, 5
1, 891, Note_on_c, 9, 42, 79
1, 900, Note_off_c, 9, 42, 0
1, 902, Note_off_c, 9, 63, 0
1, 903, Note_off_c, 2, 76, 0
1, 905, Note_off_c, 2, 72, 0
1, 905, Note_off_c, 2, 69, 0
1, 911, Note_on_c, 0, 29, 119
1, 911, Note_on_c, 2, 65, 88
1, 911, Note_on_c, 2, 81, 107
1, 911, Note_on_c, 2, 53, 106
1, 911, Note_on_c, 2, 77, 89
1, 911, Note_on_c, 2, 72, 88
1, 911, Note_on_c, 9, 69, 95
1, 911, Note_on_c, 9, 54, 90
1, 911, Note_on_c, 9, 42, 127
1, 927, Note_off_c, 9, 69, 0
1, 927, Note_off_c, 9, 42, 0
1, 935, Note_off_c, 9, 54, 0
1, 939, Note_on_c, 9, 63, 78
1, 939, Note_on_c, 9, 42, 117
1, 948, Note_off_c, 9, 42, 0
1, 949, Note_off_c, 9, 63, 0
1, 959, Note_on_c, 9, 63, 3
1, 959, Note_on_c, 9, 42, 113
1, 974, Note_off_c, 9, 63, 0
1, 974, Note_off_c, 9, 42, 0
1, 987, Note_on_c, 9, 63, 76
1, 987, Note_on_c, 9, 42, 111
1, 996, Note_off_c, 9, 42, 0
1, 997, Note_off_c, 9, 63, 0
1, 1007, Note_on_c, 9, 69, 95
1, 1007, Note_on_c, 9, 54, 90
1, 1007, Note_on_c, 9, 62, 77
1, 1007, Note_on_c, 9, 42, 127
1, 1022, Note_off_c, 9, 62, 0
1, 1022, Note_off_c, 9, 42, 0
1, 1025, Note_off_c, 9, 69, 0
1, 1031, Note_off_c, 9, 54, 0
1, 1035, Note_on_c, 9, 44, 115
1, 1044, Note_off_c, 9, 44, 0
1, 1055, Note_on_c, 9, 63, 72
1, 1055, Note_on_c, 9, 42, 116
1, 1055, Note_on_c, 9, 37, 125
1, 1055, Note_on_c, 9, 35, 124
1, 1061, Note_off_c, 9, 42, 0
1, 1067, Note_off_c, 9, 35, 0
1, 1069, Note_off_c, 9, 63, 0
1, 1071, Note_off_c, 9, 37, 0
1, 1083, Note_on_c, 9, 44, 117
1, 1093, Note_off_c, 9, 44, 0
1, 1097, Note_off_c, 2, 65, 0
1, 1097, Note_off_c, 2, 81, 0
1, 1097, Note_off_c, 2, 53, 0
1, 1097, Note_off_c, 2, 77, 0
1, 1097, Note_off_c, 2, 72, 0
1, 1103, Note_on_c, 0, 31, 99
1, 1103, Note_on_c, 2, 67, 115
1, 1103, Note_on_c, 2, 72, 127
1, 1103, Note_on_c, 2, 77, 127
1, 1103, Note_on_c, 2, 81, 127
1, 1103, Note_on_c, 9, 69, 93
1, 1103, Note_on_c, 9, 54, 88
1, 1103, Note_on_c, 9, 42, 127
1, 1107, Note_off_c, 0, 29, 0
1, 1109, Note_off_c, 9, 42, 0
1, 1119, Note_off_c, 9, 69, 0
1, 1127, Note_off_c, 9, 54, 0
1, 1131, Note_on_c, 9, 63, 39
1, 1131, Note_on_c, 9, 42, 115
1, 1131, Note_on_c, 9, 37, 124
1, 1134, Note_off_c, 9, 42, 0
1, 1141, Note_off_c, 9, 63, 0
1, 1141, Note_off_c, 9, 37, 0
1, 1143, Note_off_c, 2, 81, 0
1, 1145, Note_off_c, 2, 77, 0
1, 1147, Note_off_c, 0, 31, 0
1, 1147, Note_off_c, 2, 72, 0
1, 1148, Note_off_c, 2, 67, 0
1, 1151, Note_on_c, 0, 36, 105
1, 1151, Note_on_c, 2, 72, 89
1, 1151, Note_on_c, 2, 60, 97
1, 1151, Note_on_c, 2, 76, 99
1, 1151, Note_on_c, 2, 79, 101
1, 1151, Note_on_c, 9, 63, 74
1, 1151, Note_on_c, 9, 42, 119
1, 1153, Note_on_c, 2, 67, 85
1, 1161, Note_off_c, 2, 67, 0
1, 1161, Note_on_c, 2, 67, 85
1, 1165, Note_off_c, 2, 67, 0
1, 1166, Note_off_c, 9, 63, 0
1, 1167, Note_off_c, 9, 42, 0
1, 1179, Note_on_c, 9, 63, 63
1, 1179, Note_on_c, 9, 42, 105
1, 1188, Note_off_c, 9, 42, 0
1, 1189, Note_off_c, 9, 63, 0
1, 1199, Note_on_c, 9, 69, 95
1, 1199, Note_on_c, 9, 54, 90
1, 1199, Note_on_c, 9, 62, 78
1, 1199, Note_on_c, 9, 42, 127
1, 1214, Note_off_c, 9, 62, 0
1, 1214, Note_off_c, 9, 42, 0
1, 1216, Note_off_c, 9, 69, 0
1, 1221, Note_off_c, 9, 54, 0
1, 1227, Note_on_c, 9, 42, 112
1, 1236, Note_off_c, 9, 42, 0
1, 1247, Note_on_c, 9, 63, 76
1, 1247, Note_on_c, 9, 46, 122
1, 1247, Note_on_c, 9, 37, 127
1, 1247, Note_on_c, 9, 35, 127
1, 1259, Note_off_c, 9, 35, 0
1, 1261, Note_off_c, 9, 63, 0
1, 1262, Note_off_c, 9, 46, 0
1, 1263, Note_off_c, 9, 37, 0
1, 1275, Note_on_c, 9, 44, 112
1, 1284, Note_off_c, 9, 44, 0
1, 1288, Note_off_c, 2, 79, 0
1, 1295, Note_on_c, 2, 79, 101
1, 1295, Note_on_c, 9, 69, 90
1, 1295, Note_on_c, 9, 54, 90
1, 1295, Note_on_c, 9, 42, 127
1, 1311, Note_off_c, 9, 69, 0
1, 1311, Note_off_c, 9, 42, 0
1, 1316, Note_off_c, 9, 54, 0
1, 1323, Note_on_c, 9, 63, 76
1, 1323, Note_on_c, 9, 42, 54
1, 1332, Note_off_c, 9, 42, 0
1, 1333, Note_off_c, 9, 63, 0
1, 1340, Note_off_c, 2, 79, 0
1, 1343, Note_off_c, 2, 76, 0
1, 1343, Note_on_c, 0, 41, 119
1, 1343, Note_on_c, 2, 81, 101
1, 1343, Note_on_c, 2, 53, 99
1, 1343, Note_on_c, 2, 69, 95
1, 1343, Note_on_c, 2, 77, 85
1, 1343, Note_on_c, 9, 63, 60
1, 1343, Note_on_c, 9, 42, 107
1, 1345, Note_off_c, 2, 60, 0
1, 1347, Note_off_c, 0, 36, 0
1, 1358, Note_off_c, 9, 63, 0
1, 1359, Note_off_c, 9, 42, 0
1, 1371, Note_on_c, 9, 63, 36
1, 1371, Note_on_c, 9, 42, 108
1, 1380, Note_off_c, 9, 42, 0
1, 1381, Note_off_c, 9, 63, 0
1, 1383, Note_off_c, 0, 41, 0
1, 1387, Note_off_c, 2, 77, 0
1, 1391, Note_off_c, 2, 53, 0
1, 1391, Note_off_c, 2, 69, 0
1, 1391, Note_on_c, 0, 40, 112
1, 1391, Note_on_c, 2, 52, 97
1, 1391, Note_on_c, 2, 76, 84
1, 1391, Note_on_c, 2, 67, 89
1, 1391, Note_on_c, 2, 79, 101
1, 1391, Note_on_c, 9, 69, 90
1, 1391, Note_on_c, 9, 54, 90
1, 1391, Note_on_c, 9, 62, 74
1, 1391, Note_on_c, 9, 42, 127
1, 1392, Note_off_c, 2, 81, 0
1, 1404, Note_off_c, 9, 69, 0
1, 1406, Note_off_c, 9, 62, 0
1, 1407, Note_off_c, 9, 42, 0
1, 1409, Note_off_c, 0, 40, 0
1, 1413, Note_off_c, 9, 54, 0
1, 1419, Note_on_c, 9, 42, 108
1, 1429, Note_off_c, 9, 42, 0
1, 1436, Note_off_c, 2, 79, 0
1, 1438, Note_off_c, 2, 67, 0
1, 1439, Note_on_c, 0, 38, 112
1, 1439, Note_on_c, 2, 77, 97
1, 1439, Note_on_c, 2, 65, 95
1, 1439, Note_on_c, 2, 50, 95
1, 1439, Note_on_c, 2, 74, 95
1, 1439, Note_on_c, 9, 63, 74
1, 1439, Note_on_c, 9, 46, 108
1, 1439, Note_on_c, 9, 37, 127
1, 1439, Note_on_c, 9, 35, 126
1, 1440, Note_off_c, 2, 76, 0
1, 1444, Note_off_c, 2, 52, 0
1, 1451, Note_off_c, 9, 35, 0
1, 1453, Note_off_c, 9, 63, 0
1, 1455, Note_off_c, 9, 46, 0
1, 1455, Note_off_c, 9, 37, 0
1, 1459, Note_off_c, 0, 38, 0
1, 1467, Note_on_c, 9, 42, 106
1, 1476, Note_off_c, 9, 42, 0
1, 1484, Note_off_c, 2, 74, 0
1, 1486, Note_off_c, 2, 50, 0
1, 1487, Note_off_c, 2, 65, 0
1, 1487, Note_on_c, 0, 36, 123
1, 1487, Note_on_c, 2, 76, 107
1, 1487, Note_on_c, 2, 48, 101
1, 1487, Note_on_c, 2, 67, 88
1, 1487, Note_on_c, 2, 64, 89
1, 1487, Note_on_c, 9, 69, 99
1, 1487, Note_on_c, 9, 54, 90
1, 1487, Note_on_c, 9, 42, 127
1, 1489, Note_off_c, 2, 77, 0
1, 1499, Note_off_c, 9, 69, 0
1, 1503, Note_off_c, 9, 42, 0
1, 1509, Note_off_c, 9, 54, 0
1, 1515, Note_on_c, 9, 42, 101
1, 1524, Note_off_c, 9, 42, 0
1, 1535, Note_on_c, 9, 63, 74
1, 1535, Note_on_c, 9, 42, 109
1, 1550, Note_off_c, 9, 63, 0
1, 1550, Note_off_c, 9, 42, 0
1, 1563, Note_on_c, 9, 63, 18
1, 1563, Note_on_c, 9, 42, 108
1, 1566, Note_off_c, 9, 42, 0
1, 1573, Note_off_c, 9, 63, 0
1, 1583, Note_on_c, 9, 69, 101
1, 1583, Note_on_c, 9, 54, 85
1, 1583, Note_on_c, 9, 42, 127
1, 1596, Note_off_c, 9, 69, 0
1, 1599, Note_off_c, 9, 42, 0
1, 1601, Note_off_c, 9, 54, 0
1, 1611, Note_on_c, 9, 62, 68
1, 1611, Note_on_c, 9, 42, 110
1, 1620, Note_off_c, 9, 42, 0
1, 1621, Note_off_c, 9, 62, 0
1, 1631, Note_on_c, 9, 62, 78
1, 1631, Note_on_c, 9, 46, 110
1, 1631, Note_on_c, 9, 37, 127
1, 1631, Note_on_c, 9, 35, 124
1, 1644, Note_off_c, 9, 35, 0
1, 1646, Note_off_c, 9, 62, 0
1, 1646, Note_off_c, 9, 46, 0
1, 1647, Note_off_c, 9, 37, 0
1, 1659, Note_on_c, 9, 63, 39
1, 1659, Note_on_c, 9, 42, 10
1, 1668, Note_off_c, 9, 42, 0
1, 1669, Note_off_c, 9, 63, 0
1, 1679, Note_on_c, 9, 69, 101
1, 1679, Note_on_c, 9, 54, 90
1, 1679, Note_on_c, 9, 42, 127
1, 1695, Note_off_c, 9, 69, 0
1, 1695, Note_off_c, 9, 54, 0
1, 1695, Note_off_c, 9, 42, 0
1, 1707, Note_on_c, 9, 63, 47
1, 1707, Note_on_c, 9, 42, 104
1, 1710, Note_off_c, 2, 64, 0
1, 1711, Note_off_c, 2, 72, 0
1, 1711, Note_off_c, 2, 67, 0
1, 1716, Note_off_c, 9, 42, 0
1, 1717, Note_off_c, 9, 63, 0
1, 1724, Note_off_c, 0, 36, 0
1, 1727, Note_off_c, 2, 48, 0
1, 1727, Note_on_c, 0, 31, 117
1, 1727, Note_on_c, 2, 79, 99
1, 1727, Note_on_c, 2, 71, 101
1, 1727, Note_on_c, 2, 67, 89
1, 1727, Note_on_c, 2, 55, 101
1, 1727, Note_on_c, 9, 63, 70
1, 1727, Note_on_c, 9, 42, 104
1, 1728, Note_off_c, 2, 76, 0
1, 1741, Note_off_c, 9, 63, 0
1, 1743, Note_off_c, 9, 42, 0
1, 1755, Note_on_c, 9, 63, 77
1, 1755, Note_on_c, 9, 42, 107
1, 1765, Note_off_c, 9, 63, 0
1, 1765, Note_off_c, 9, 42, 0
1, 1773, Note_off_c, 2, 55, 0
1, 1775, Note_off_c, 2, 67, 0
1, 1775, Note_on_c, 0, 33, 110
1, 1775, Note_on_c, 2, 69, 88
1, 1775, Note_on_c, 2, 57, 93
1, 1775, Note_on_c, 2, 72, 95
1, 1775, Note_on_c, 9, 69, 101
1, 1775, Note_on_c, 9, 54, 90
1, 1775, Note_on_c, 9, 62, 42
1, 1775, Note_on_c, 9, 42, 127
1, 1776, Note_off_c, 0, 31, 0
1, 1777, Note_off_c, 2, 71, 0
1, 1781, Note_off_c, 9, 42, 0
1, 1790, Note_off_c, 9, 62, 0
1, 1793, Note_off_c, 9, 69, 0
1, 1794, Note_off_c, 9, 54, 0
1, 1803, Note_on_c, 9, 62, 67
1, 1803, Note_on_c, 9, 42, 111
1, 1803, Note_on_c, 9, 42, 60
1, 1805, Note_off_c, 9, 42, 0
1, 1813, Note_off_c, 9, 62, 0
1, 1822, Note_off_c, 0, 33, 0
1, 1822, Note_off_c, 2, 72, 0
1, 1823, Note_on_c, 0, 35, 115
1, 1823, Note_on_c, 2, 74, 90
1, 1823, Note_on_c, 2, 59, 97
1, 1823, Note_on_c, 2, 71, 93
1, 1823, Note_on_c, 9, 42, 108
1, 1823, Note_on_c, 9, 35, 124
1, 1825, Note_off_c, 2, 69, 0
1, 1825, Note_off_c, 2, 57, 0
1, 1828, Note_off_c, 9, 42, 0
1, 1835, Note_off_c, 9, 35, 0
1, 1851, Note_on_c, 9, 62, 73
1, 1851, Note_on_c, 9, 42, 107
1, 1851, Note_on_c, 9, 42, 49
1, 1853, Note_off_c, 9, 42, 0
1, 1861, Note_off_c, 9, 62, 0
1, 1869, Note_off_c, 0, 35, 0
1, 1869, Note_off_c, 2, 71, 0
1, 1871, Note_on_c, 0, 31, 115
1, 1871, Note_on_c, 2, 67, 75
1, 1871, Note_on_c, 2, 71, 95
1, 1871, Note_on_c, 2, 55, 101
1, 1871, Note_on_c, 9, 69, 97
1, 1871, Note_on_c, 9, 54, 90
1, 1871, Note_on_c, 9, 42, 127
1, 1873, Note_off_c, 2, 74, 0
1, 1873, Note_off_c, 2, 59, 0
1, 1876, Note_off_c, 9, 42, 0
1, 1886, Note_off_c, 9, 69, 0
1, 1895, Note_off_c, 9, 54, 0
1, 1899, Note_on_c, 9, 62, 74
1, 1899, Note_on_c, 9, 42, 109
1, 1899, Note_on_c, 9, 42, 76
1, 1901, Note_off_c, 9, 42, 0
1, 1905, Note_off_c, 2, 79, 0
1, 1908, Note_off_c, 2, 55, 0
1, 1909, Note_off_c, 9, 62, 0
1, 1915, Note_off_c, 0, 31, 0
1, 1916, Note_off_c, 2, 71, 0
1, 1917, Note_off_c, 2, 67, 0
1, 1919, Note_on_c, 0, 36, 123
1, 1919, Note_on_c, 2, 79, 106
1, 1919, Note_on_c, 2, 60, 107
1, 1919, Note_on_c, 2, 76, 97
1, 1919, Note_on_c, 2, 72, 84
1, 1919, Note_on_c, 9, 63, 79
1, 1919, Note_on_c, 9, 42, 119
1, 1933, Note_off_c, 9, 42, 0
1, 1934, Note_off_c, 9, 63, 0
1, 1945, Note_on_c, 9, 42, 105
1, 1957, Note_off_c, 9, 42, 0
1, 1967, Note_on_c, 9, 69, 95
1, 1967, Note_on_c, 9, 54, 90
1, 1967, Note_on_c, 9, 63, 70
1, 1967, Note_on_c, 9, 42, 127
1, 1981, Note_off_c, 9, 42, 0
1, 1982, Note_off_c, 9, 63, 0
1, 1987, Note_off_c, 9, 69, 0
1, 1987, Note_off_c, 9, 54, 0
1, 1993, Note_on_c, 9, 42, 109
1, 2005, Note_off_c, 9, 42, 0
1, 2015, Note_on_c, 9, 62, 77
1, 2015, Note_on_c, 9, 46, 122
1, 2015, Note_on_c, 9, 37, 127
1, 2015, Note_on_c, 9, 35, 127
1, 2027, Note_off_c, 9, 35, 0
1, 2028, Note_off_c, 9, 46, 0
1, 2030, Note_off_c, 9, 62, 0
1, 2031, Note_off_c, 9, 37, 0
1, 2041, Note_on_c, 9, 44, 112
1, 2053, Note_off_c, 9, 44, 0
1, 2063, Note_on_c, 9, 69, 95
1, 2063, Note_on_c, 9, 54, 88
1, 2063, Note_on_c, 9, 42, 127
1, 2077, Note_off_c, 9, 42, 0
1, 2086, Note_off_c, 9, 54, 0
1, 2087, Note_off_c, 9, 69, 0
1, 2089, Note_on_c, 9, 42, 116
1, 2091, Note_on_c, 9, 63, 69
1, 2101, Note_off_c, 9, 42, 0
1, 2102, Note_off_c, 9, 63, 0
1, 2108, Note_off_c, 2, 72, 0
1, 2111, Note_off_c, 2, 76, 0
1, 2111, Note_on_c, 0, 35, 119
1, 2111, Note_on_c, 2, 59, 101
1, 2111, Note_on_c, 2, 74, 106
1, 2111, Note_on_c, 2, 71, 93
1, 2111, Note_on_c, 9, 63, 39
1, 2111, Note_on_c, 9, 42, 117
1, 2113, Note_off_c, 0, 36, 0
1, 2116, Note_off_c, 2, 60, 0
1, 2125, Note_off_c, 9, 42, 0
1, 2126, Note_off_c, 9, 63, 0
1, 2137, Note_on_c, 9, 42, 105
1, 2139, Note_on_c, 9, 62, 71
1, 2149, Note_off_c, 9, 42, 0
1, 2149, Note_off_c, 9, 62, 0
1, 2159, Note_on_c, 9, 69, 97
1, 2159, Note_on_c, 9, 54, 90
1, 2159, Note_on_c, 9, 42, 127
1, 2173, Note_off_c, 9, 42, 0
1, 2177, Note_off_c, 9, 69, 0
1, 2180, Note_off_c, 9, 54, 0
1, 2185, Note_on_c, 9, 42, 112
1, 2187, Note_on_c, 9, 63, 67
1, 2197, Note_off_c, 9, 42, 0
1, 2197, Note_off_c, 9, 63, 0
1, 2207, Note_on_c, 9, 63, 72
1, 2207, Note_on_c, 9, 46, 108
1, 2207, Note_on_c, 9, 37, 127
1, 2207, Note_on_c, 9, 39, 69
1, 2207, Note_on_c, 9, 35, 126
1, 2219, Note_off_c, 9, 35, 0
1, 2221, Note_off_c, 9, 63, 0
1, 2221, Note_off_c, 9, 46, 0
1, 2223, Note_off_c, 9, 37, 0
1, 2223, Note_off_c, 9, 39, 0
1, 2233, Note_on_c, 9, 44, 115
1, 2245, Note_off_c, 9, 44, 0
1, 2255, Note_on_c, 9, 69, 97
1, 2255, Note_on_c, 9, 54, 90
1, 2255, Note_on_c, 9, 42, 127
1, 2269, Note_off_c, 9, 42, 0
1, 2273, Note_off_c, 9, 54, 0
1, 2274, Note_off_c, 9, 69, 0
1, 2281, Note_on_c, 9, 44, 116
1, 2283, Note_on_c, 9, 63, 39
1, 2293, Note_off_c, 9, 44, 0
1, 2293, Note_off_c, 9, 63, 0
1, 2300, Note_off_c, 2, 71, 0
1, 2301, Note_off_c, 2, 74, 0
1, 2302, Note_off_c, 2, 59, 0
1, 2303, Note_off_c, 2, 79, 0
1, 2303, Note_off_c, 0, 35, 0
1, 2303, Note_on_c, 0, 33, 112
1, 2303, Note_on_c, 2, 72, 85
1, 2303, Note_on_c, 2, 76, 95
1, 2303, Note_on_c, 2, 57, 101
1, 2303, Note_on_c, 2, 69, 95
1, 2303, Note_on_c, 9, 63, 77
1, 2303, Note_on_c, 9, 42, 108
1, 2317, Note_off_c, 9, 42, 0
1, 2318, Note_off_c, 9, 63, 0
1, 2329, Note_on_c, 9, 44, 117
1, 2341, Note_off_c, 9, 44, 0
1, 2351, Note_on_c, 9, 69, 97
1, 2351, Note_on_c, 9, 54, 85
1, 2351, Note_on_c, 9, 62, 76
1, 2351, Note_on_c, 9, 42, 127
1, 2365, Note_off_c, 9, 42, 0
1, 2366, Note_off_c, 9, 62, 0
1, 2367, Note_off_c, 9, 69, 0
1, 2375, Note_off_c, 9, 54, 0
1, 2377, Note_on_c, 9, 42, 105
1, 2381, Note_off_c, 0, 33, 0
1, 2387, Note_off_c, 2, 69, 0
1, 2388, Note_off_c, 2, 57, 0
1, 2389, Note_off_c, 9, 42, 0
1, 2391, Note_off_c, 2, 76, 0
1, 2399, Note_on_c, 0, 33, 110
1, 2399, Note_on_c, 2, 69, 99
1, 2399, Note_on_c, 2, 76, 84
1, 2399, Note_on_c, 2, 57, 101
1, 2399, Note_on_c, 9, 63, 80
1, 2399, Note_on_c, 9, 46, 113
1, 2399, Note_on_c, 9, 37, 127
1, 2399, Note_on_c, 9, 35, 124
1, 2412, Note_off_c, 9, 35, 0
1, 2413, Note_off_c, 9, 63, 0
1, 2413, Note_off_c, 9, 46, 0
1, 2415, Note_off_c, 9, 37, 0
1, 2419, Note_off_c, 0, 33, 0
1, 2420, Note_off_c, 2, 57, 0
1, 2425, Note_on_c, 9, 44, 118
1, 2437, Note_off_c, 9, 44, 0
1, 2439, Note_off_c, 2, 76, 0
1, 2441, Note_off_c, 2, 72, 0
1, 2441, Note_off_c, 2, 69, 0
1, 2447, Note_on_c, 0, 29, 119
1, 2447, Note_on_c, 2, 65, 88
1, 2447, Note_on_c, 2, 81, 107
1, 2447, Note_on_c, 2, 53, 106
1, 2447, Note_on_c, 2, 77, 89
1, 2447, Note_on_c, 2, 72, 88
1, 2447, Note_on_c, 9, 69, 97
1, 2447, Note_on_c, 9, 54, 85
1, 2447, Note_on_c, 9, 42, 127
1, 2461, Note_off_c, 9, 69, 0
1, 2461, Note_off_c, 9, 42, 0
1, 2471, Note_off_c, 9, 54, 0
1, 2473, Note_on_c, 9, 44, 117
1, 2475, Note_on_c, 9, 63, 77
1, 2485, Note_off_c, 9, 44, 0
1, 2486, Note_off_c, 9, 63, 0
1, 2495, Note_on_c, 9, 63, 74
1, 2495, Note_on_c, 9, 42, 109
1, 2509, Note_off_c, 9, 63, 0
1, 2509, Note_off_c, 9, 42, 0
1, 2521, Note_on_c, 9, 42, 105
1, 2523, Note_on_c, 9, 63, 70
1, 2533, Note_off_c, 9, 42, 0
1, 2533, Note_off_c, 9, 63, 0
1, 2543, Note_on_c, 9, 69, 97
1, 2543, Note_on_c, 9, 54, 90
1, 2543, Note_on_c, 9, 62, 88
1, 2543, Note_on_c, 9, 42, 127
1, 2556, Note_off_c, 9, 42, 0
1, 2557, Note_off_c, 9, 62, 0
1, 2559, Note_off_c, 9, 69, 0
1, 2567, Note_off_c, 9, 54, 0
1, 2569, Note_on_c, 9, 42, 82
1, 2581, Note_off_c, 9, 42, 0
1, 2591, Note_on_c, 9, 63, 79
1, 2591, Note_on_c, 9, 46, 115
1, 2591, Note_on_c, 9, 37, 125
1, 2591, Note_on_c, 9, 35, 124
1, 2603, Note_off_c, 9, 35, 0
1, 2605, Note_off_c, 9, 63, 0
1, 2605, Note_off_c, 9, 46, 0
1, 2609, Note_off_c, 9, 37, 0
1, 2617, Note_on_c, 9, 44, 117
1, 2629, Note_off_c, 9, 44, 0
1, 2633, Note_off_c, 2, 65, 0
1, 2633, Note_off_c, 2, 81, 0
1, 2633, Note_off_c, 2, 53, 0
1, 2633, Note_off_c, 2, 77, 0
1, 2633, Note_off_c, 2, 72, 0
1, 2639, Note_on_c, 0, 31, 99
1, 2639, Note_on_c, 2, 93, 119
1, 2639, Note_on_c, 2, 89, 123
1, 2639, Note_on_c, 2, 84, 119
1, 2639, Note_on_c, 2, 67, 100
1, 2639, Note_on_c, 9, 69, 99
1, 2639, Note_on_c, 9, 54, 90
1, 2639, Note_on_c, 9, 42, 127
1, 2643, Note_off_c, 0, 29, 0
1, 2653, Note_off_c, 9, 42, 0
1, 2655, Note_off_c, 9, 69, 0
1, 2663, Note_off_c, 9, 54, 0
1, 2665, Note_on_c, 9, 44, 117
1, 2667, Note_on_c, 9, 37, 127
1, 2675, Note_off_c, 9, 37, 0
1, 2677, Note_off_c, 9, 44, 0
1, 2683, Note_off_c, 0, 31, 0
1, 2684, Note_off_c, 2, 67, 0
1, 2685, Note_off_c, 2, 93, 0
1, 2685, Note_off_c, 2, 89, 0
1, 2685, Note_off_c, 2, 84, 0
1, 2687, Note_on_c, 0, 36, 105
1, 2687, Note_on_c, 2, 84, 89
1, 2687, Note_on_c, 2, 60, 97
1, 2687, Note_on_c, 2, 88, 99
1, 2687, Note_on_c, 2, 91, 101
1, 2687, Note_on_c, 9, 63, 75
1, 2687, Note_on_c, 9, 42, 109
1, 2689, Note_on_c, 2, 67, 85
1, 2697, Note_off_c, 2, 67, 0
1, 2697, Note_on_c, 2, 67, 85
1, 2701, Note_off_c, 9, 42, 0
1, 2701, Note_off_c, 2, 67, 0
1, 2702, Note_off_c, 9, 63, 0
1, 2713, Note_on_c, 9, 44, 112
1, 2715, Note_on_c, 9, 63, 75
1, 2725, Note_off_c, 9, 44, 0
1, 2725, Note_off_c, 9, 63, 0
1, 2735, Note_on_c, 9, 69, 97
1, 2735, Note_on_c, 9, 54, 85
1, 2735, Note_on_c, 9, 62, 85
1, 2735, Note_on_c, 9, 42, 127
1, 2749, Note_off_c, 9, 42, 0
1, 2750, Note_off_c, 9, 62, 0
1, 2752, Note_off_c, 9, 69, 0
1, 2759, Note_off_c, 9, 54, 0
1, 2761, Note_on_c, 9, 42, 110
1, 2773, Note_off_c, 9, 42, 0
1, 2783, Note_on_c, 9, 63, 78
1, 2783, Note_on_c, 9, 46, 108
1, 2783, Note_on_c, 9, 37, 127
1, 2783, Note_on_c, 9, 35, 127
1, 2795, Note_off_c, 9, 35, 0
1, 2797, Note_off_c, 9, 46, 0
1, 2798, Note_off_c, 9, 63, 0
1, 2799, Note_off_c, 9, 37, 0
1, 2809, Note_on_c, 9, 44, 112
1, 2821, Note_off_c, 9, 44, 0
1, 2824, Note_off_c, 2, 91, 0
1, 2831, Note_on_c, 2, 79, 101
1, 2831, Note_on_c, 9, 69, 97
1, 2831, Note_on_c, 9, 54, 90
1, 2831, Note_on_c, 9, 42, 127
1, 2845, Note_off_c, 9, 42, 0
1, 2848, Note_off_c, 9, 69, 0
1, 2855, Note_off_c, 9, 54, 0
1, 2857, Note_on_c, 9, 42, 107
1, 2859, Note_on_c, 9, 63, 80
1, 2869, Note_off_c, 9, 42, 0
1, 2870, Note_off_c, 9, 63, 0
1, 2876, Note_off_c, 2, 79, 0
1, 2879, Note_off_c, 2, 88, 0
1, 2879, Note_on_c, 0, 41, 119
1, 2879, Note_on_c, 2, 81, 101
1, 2879, Note_on_c, 2, 53, 99
1, 2879, Note_on_c, 2, 69, 95
1, 2879, Note_on_c, 2, 77, 85
1, 2879, Note_on_c, 9, 63, 77
1, 2879, Note_on_c, 9, 42, 117
1, 2881, Note_off_c, 2, 60, 0
1, 2883, Note_off_c, 0, 36, 0
1, 2893, Note_off_c, 9, 42, 0
1, 2894, Note_off_c, 9, 63, 0
1, 2905, Note_on_c, 9, 42, 107
1, 2907, Note_on_c, 9, 63, 68
1, 2917, Note_off_c, 9, 42, 0
1, 2917, Note_off_c, 9, 63, 0
1, 2919, Note_off_c, 0, 41, 0
1, 2923, Note_off_c, 2, 77, 0
1, 2927, Note_off_c, 2, 53, 0
1, 2927, Note_off_c, 2, 69, 0
1, 2927, Note_on_c, 0, 40, 112
1, 2927, Note_on_c, 2, 52, 97
1, 2927, Note_on_c, 2, 76, 84
1, 2927, Note_on_c, 2, 67, 89
1, 2927, Note_on_c, 2, 79, 101
1, 2927, Note_on_c, 9, 69, 97
1, 2927, Note_on_c, 9, 54, 90
1, 2927, Note_on_c, 9, 62, 79
1, 2927, Note_on_c, 9, 42, 127
1, 2928, Note_off_c, 2, 81, 0
1, 2941, Note_off_c, 9, 42, 0
1, 2942, Note_off_c, 9, 69, 0
1, 2942, Note_off_c, 9, 62, 0
1, 2945, Note_off_c, 0, 40, 0
1, 2950, Note_off_c, 9, 54, 0
1, 2953, Note_on_c, 9, 42, 112
1, 2955, Note_on_c, 9, 37, 100
1, 2963, Note_off_c, 9, 37, 0
1, 2965, Note_off_c, 9, 42, 0
1, 2972, Note_off_c, 2, 79, 0
1, 2974, Note_off_c, 2, 67, 0
1, 2975, Note_on_c, 0, 38, 112
1, 2975, Note_on_c, 2, 77, 97
1, 2975, Note_on_c, 2, 65, 95
1, 2975, Note_on_c, 2, 50, 95
1, 2975, Note_on_c, 2, 74, 95
1, 2975, Note_on_c, 9, 63, 81
1, 2975, Note_on_c, 9, 46, 115
1, 2975, Note_on_c, 9, 37, 127
1, 2975, Note_on_c, 9, 35, 126
1, 2976, Note_off_c, 2, 76, 0
1, 2980, Note_off_c, 2, 52, 0
1, 2987, Note_off_c, 9, 35, 0
1, 2989, Note_off_c, 9, 63, 0
1, 2989, Note_off_c, 9, 46, 0
1, 2993, Note_off_c, 9, 37, 0
1, 2995, Note_off_c, 0, 38, 0
1, 3001, Note_on_c, 9, 44, 115
1, 3013, Note_off_c, 9, 44, 0
1, 3020, Note_off_c, 2, 74, 0
1, 3022, Note_off_c, 2, 50, 0
1, 3023, Note_off_c, 2, 65, 0
1, 3023, Note_on_c, 0, 36, 123
1, 3023, Note_on_c, 2, 76, 107
1, 3023, Note_on_c, 2, 48, 101
1, 3023, Note_on_c, 2, 67, 88
1, 3023, Note_on_c, 2, 64, 89
1, 3023, Note_on_c, 9, 69, 90
1, 3023, Note_on_c, 9, 54, 90
1, 3023, Note_on_c, 9, 42, 127
1, 3025, Note_off_c, 2, 77, 0
1, 3037, Note_off_c, 9, 42, 0
1, 3040, Note_off_c, 9, 69, 0
1, 3041, Note_off_c, 9, 54, 0
1, 3049, Note_on_c, 9, 44, 116
1, 3061, Note_off_c, 9, 44, 0
1, 3071, Note_on_c, 9, 42, 115
1, 3072, Note_on_c, 9, 63, 85
1, 3084, Note_off_c, 9, 42, 0
1, 3085, Note_off_c, 9, 63, 0
1, 3097, Note_on_c, 9, 44, 117
1, 3101, Note_on_c, 9, 63, 75
1, 3109, Note_off_c, 9, 44, 0
1, 3114, Note_off_c, 9, 63, 0
1, 3119, Note_on_c, 9, 69, 97
1, 3119, Note_on_c, 9, 54, 88
1, 3119, Note_on_c, 9, 42, 127
1, 3120, Note_on_c, 9, 62, 88
1, 3133, Note_off_c, 9, 42, 0
1, 3133, Note_off_c, 9, 62, 0
1, 3137, Note_off_c, 9, 69, 0
1, 3143, Note_off_c, 9, 54, 0
1, 3145, Note_on_c, 9, 42, 115
1, 3157, Note_off_c, 9, 42, 0
1, 3167, Note_on_c, 9, 46, 119
1, 3167, Note_on_c, 9, 37, 126
1, 3167, Note_on_c, 9, 35, 124
1, 3168, Note_on_c, 9, 63, 81
1, 3180, Note_off_c, 9, 35, 0
1, 3181, Note_off_c, 9, 46, 0
1, 3181, Note_off_c, 9, 63, 0
1, 3185, Note_off_c, 9, 37, 0
1, 3193, Note_on_c, 9, 44, 118
1, 3205, Note_off_c, 9, 44, 0
1, 3215, Note_on_c, 9, 69, 95
1, 3215, Note_on_c, 9, 54, 90
1, 3215, Note_on_c, 9, 42, 127
1, 3229, Note_off_c, 9, 42, 0
1, 3233, Note_off_c, 9, 69, 0
1, 3239, Note_off_c, 9, 54, 0
1, 3241, Note_on_c, 9, 44, 117
1, 3246, Note_off_c, 2, 64, 0
1, 3246, Note_on_c, 9, 63, 86
1, 3247, Note_off_c, 2, 84, 0
1, 3247, Note_off_c, 2, 67, 0
1, 3253, Note_off_c, 9, 44, 0
1, 3259, Note_off_c, 9, 63, 0
1, 3260, Note_off_c, 0, 36, 0
1, 3262, Note_on_c, 9, 63, 74
1, 3263, Note_off_c, 2, 48, 0
1, 3263, Note_on_c, 0, 31, 117
1, 3263, Note_on_c, 2, 79, 94
1, 3263, Note_on_c, 2, 83, 98
1, 3263, Note_on_c, 9, 42, 125
1, 3264, Note_off_c, 2, 76, 0
1, 3275, Note_off_c, 9, 63, 0
1, 3277, Note_off_c, 9, 42, 0
1, 3289, Note_on_c, 9, 44, 115
1, 3293, Note_on_c, 9, 63, 81
1, 3295, Note_on_c, 9, 62, 77
1, 3301, Note_off_c, 9, 44, 0
1, 3305, Note_off_c, 9, 63, 0
1, 3308, Note_off_c, 9, 62, 0
1, 3311, Note_off_c, 2, 79, 0
1, 3311, Note_off_c, 2, 83, 0
1, 3311, Note_on_c, 0, 33, 110
1, 3311, Note_on_c, 2, 81, 105
1, 3311, Note_on_c, 2, 77, 101
1, 3311, Note_on_c, 9, 69, 89
1, 3311, Note_on_c, 9, 54, 85
1, 3311, Note_on_c, 9, 42, 127
1, 3312, Note_off_c, 0, 31, 0
1, 3325, Note_off_c, 9, 42, 0
1, 3330, Note_off_c, 9, 69, 0
1, 3331, Note_on_c, 9, 63, 72
1, 3335, Note_off_c, 9, 54, 0
1, 3335, Note_on_c, 9, 62, 78
1, 3339, Note_on_c, 9, 42, 106
1, 3339, Note_on_c, 9, 42, 107
1, 3341, Note_off_c, 9, 42, 0
1, 3343, Note_off_c, 9, 63, 0
1, 3346, Note_off_c, 9, 62, 0
1, 3358, Note_off_c, 0, 33, 0
1, 3359, Note_off_c, 2, 81, 0
1, 3359, Note_off_c, 2, 77, 0
1, 3359, Note_on_c, 0, 35, 115
1, 3359, Note_on_c, 2, 79, 123
1, 3359, Note_on_c, 2, 76, 112
1, 3359, Note_on_c, 9, 42, 113
1, 3359, Note_on_c, 9, 37, 127
1, 3359, Note_on_c, 9, 35, 124
1, 3364, Note_off_c, 9, 42, 0
1, 3368, Note_on_c, 9, 63, 88
1, 3369, Note_on_c, 9, 62, 88
1, 3371, Note_off_c, 9, 35, 0
1, 3377, Note_off_c, 9, 37, 0
1, 3384, Note_off_c, 9, 63, 0
1, 3385, Note_off_c, 9, 62, 0
1, 3387, Note_on_c, 9, 42, 112
1, 3387, Note_on_c, 9, 42, 108
1, 3389, Note_off_c, 9, 42, 0
1, 3405, Note_off_c, 0, 35, 0
1, 3407, Note_off_c, 2, 79, 0
1, 3407, Note_off_c, 2, 76, 0
1, 3407, Note_on_c, 0, 31, 115
1, 3407, Note_on_c, 2, 74, 112
1, 3407, Note_on_c, 2, 77, 119
1, 3407, Note_on_c, 9, 69, 95
1, 3407, Note_on_c, 9, 54, 85
1, 3407, Note_on_c, 9, 42, 105
1, 3412, Note_off_c, 9, 42, 0
1, 3422, Note_off_c, 9, 69, 0
1, 3427, Note_off_c, 9, 54, 0
1, 3435, Note_on_c, 9, 42, 107
1, 3438, Note_off_c, 9, 42, 0
1, 3451, Note_off_c, 0, 31, 0
1, 3455, Note_off_c, 2, 74, 0
1, 3455, Note_off_c, 2, 77, 0
1, 3455, Note_on_c, 0, 36, 123
1, 3455, Note_on_c, 2, 79, 106
1, 3455, Note_on_c, 2, 60, 107
1, 3455, Note_on_c, 2, 76, 97
1, 3455, Note_on_c, 2, 72, 84
1, 3455, Note_on_c, 2, 71, 84
1, 3455, Note_on_c, 9, 63, 70
1, 3455, Note_on_c, 9, 42, 119
1, 3456, Note_off_c, 2, 71, 0
1, 3470, Note_off_c, 9, 63, 0
1, 3471, Note_off_c, 9, 42, 0
1, 3483, Note_on_c, 9, 63, 63
1, 3483, Note_on_c, 9, 42, 105
1, 3492, Note_off_c, 9, 42, 0
1, 3493, Note_off_c, 9, 63, 0
1, 3503, Note_on_c, 9, 69, 84
1, 3503, Note_on_c, 9, 54, 90
1, 3503, Note_on_c, 9, 62, 76
1, 3503, Note_on_c, 9, 42, 127
1, 3518, Note_off_c, 9, 62, 0
1, 3518, Note_off_c, 9, 42, 0
1, 3522, Note_off_c, 9, 69, 0
1, 3527, Note_off_c, 9, 54, 0
1, 3531, Note_on_c, 9, 42, 112
1, 3540, Note_off_c, 9, 42, 0
1, 3551, Note_on_c, 9, 63, 72
1, 3551, Note_on_c, 9, 46, 119
1, 3551, Note_on_c, 9, 37, 127
1, 3551, Note_on_c, 9, 35, 127
1, 3563, Note_off_c, 9, 35, 0
1, 3566, Note_off_c, 9, 63, 0
1, 3567, Note_off_c, 9, 37, 0
1, 3568, Note_off_c, 9, 46, 0
1, 3579, Note_on_c, 9, 44, 112
1, 3588, Note_off_c, 9, 44, 0
1, 3599, Note_on_c, 9, 69, 95
1, 3599, Note_on_c, 9, 54, 88
1, 3599, Note_on_c, 9, 42, 127
1, 3615, Note_off_c, 9, 42, 0
1, 3621, Note_off_c, 9, 69, 0
1, 3623, Note_off_c, 9, 54, 0
1, 3627, Note_on_c, 9, 63, 74
1, 3627, Note_on_c, 9, 42, 54
1, 3636, Note_off_c, 9, 42, 0
1, 3637, Note_off_c, 9, 63, 0
1, 3644, Note_off_c, 2, 72, 0
1, 3647, Note_off_c, 2, 76, 0
1, 3647, Note_on_c, 0, 35, 119
1, 3647, Note_on_c, 2, 59, 101
1, 3647, Note_on_c, 2, 74, 106
1, 3647, Note_on_c, 2, 71, 93
1, 3647, Note_on_c, 9, 63, 30
1, 3647, Note_on_c, 9, 42, 107
1, 3649, Note_off_c, 0, 36, 0
1, 3652, Note_off_c, 2, 60, 0
1, 3661, Note_off_c, 9, 63, 0
1, 3663, Note_off_c, 9, 42, 0
1, 3675, Note_on_c, 9, 63, 42
1, 3675, Note_on_c, 9, 42, 108
1, 3684, Note_off_c, 9, 42, 0
1, 3685, Note_off_c, 9, 63, 0
1, 3695, Note_on_c, 9, 69, 90
1, 3695, Note_on_c, 9, 54, 85
1, 3695, Note_on_c, 9, 62, 76
1, 3695, Note_on_c, 9, 42, 127
1, 3710, Note_off_c, 9, 62, 0
1, 3711, Note_off_c, 9, 42, 0
1, 3717, Note_off_c, 9, 69, 0
1, 3719, Note_off_c, 9, 54, 0
1, 3723, Note_on_c, 9, 42, 115
1, 3733, Note_off_c, 9, 42, 0
1, 3743, Note_on_c, 9, 63, 80
1, 3743, Note_on_c, 9, 46, 116
1, 3743, Note_on_c, 9, 37, 127
1, 3743, Note_on_c, 9, 35, 126
1, 3755, Note_off_c, 9, 35, 0
1, 3758, Note_off_c, 9, 63, 0
1, 3758, Note_off_c, 9, 37, 0
1, 3759, Note_off_c, 9, 46, 0
1, 3771, Note_on_c, 9, 42, 60
1, 3780, Note_off_c, 9, 42, 0
1, 3791, Note_on_c, 9, 69, 95
1, 3791, Note_on_c, 9, 54, 88
1, 3791, Note_on_c, 9, 42, 127
1, 3807, Note_off_c, 9, 42, 0
1, 3809, Note_off_c, 9, 69, 0
1, 3815, Note_off_c, 9, 54, 0
1, 3819, Note_on_c, 9, 42, 115
1, 3828, Note_off_c, 9, 42, 0
1, 3836, Note_off_c, 2, 71, 0
1, 3837, Note_off_c, 2, 74, 0
1, 3838, Note_off_c, 2, 59, 0
1, 3839, Note_off_c, 2, 79, 0
1, 3839, Note_off_c, 0, 35, 0
1, 3839, Note_on_c, 0, 33, 112
1, 3839, Note_on_c, 2, 72, 85
1, 3839, Note_on_c, 2, 76, 95
1, 3839, Note_on_c, 2, 57, 101
1, 3839, Note_on_c, 2, 69, 95
1, 3839, Note_on_c, 9, 63, 72
1, 3839, Note_on_c, 9, 42, 114
1, 3854, Note_off_c, 9, 63, 0
1, 3855, Note_off_c, 9, 42, 0
1, 3867, Note_on_c, 9, 63, 72
1, 3867, Note_on_c, 9, 44, 117
1, 3876, Note_off_c, 9, 44, 0
1, 3877, Note_off_c, 9, 63, 0
1, 3887, Note_on_c, 9, 69, 95
1, 3887, Note_on_c, 9, 54, 90
1, 3887, Note_on_c, 9, 62, 74
1, 3887, Note_on_c, 9, 42, 127
1, 3902, Note_off_c, 9, 62, 0
1, 3903, Note_off_c, 9, 42, 0
1, 3906, Note_off_c, 9, 69, 0
1, 3911, Note_off_c, 9, 54, 0
1, 3915, Note_on_c, 9, 42, 116
1, 3917, Note_off_c, 0, 33, 0
1, 3923, Note_off_c, 2, 69, 0
1, 3924, Note_off_c, 2, 57, 0
1, 3924, Note_off_c, 9, 42, 0
1, 3927, Note_off_c, 2, 76, 0
1, 3935, Note_on_c, 0, 33, 110
1, 3935, Note_on_c, 2, 69, 99
1, 3935, Note_on_c, 2, 76, 84
1, 3935, Note_on_c, 2, 57, 101
1, 3935, Note_on_c, 9, 63, 75
1, 3935, Note_on_c, 9, 46, 112
1, 3935, Note_on_c, 9, 37, 123
1, 3935, Note_on_c, 9, 35, 124
1, 3948, Note_off_c, 9, 35, 0
1, 3950, Note_off_c, 9, 63, 0
1, 3951, Note_off_c, 9, 46, 0
1, 3951, Note_off_c, 9, 37, 0
1, 3955, Note_off_c, 0, 33, 0
1, 3956, Note_off_c, 2, 57, 0
1, 3963, Note_on_c, 9, 63, 5
1, 3963, Note_on_c, 9, 42, 79
1, 3972, Note_off_c, 9, 42, 0
1, 3974, Note_off_c, 9, 63, 0
1, 3975, Note_off_c, 2, 76, 0
1, 3977, Note_off_c, 2, 72, 0
1, 3977, Note_off_c, 2, 69, 0
1, 3983, Note_on_c, 0, 29, 119
1, 3983, Note_on_c, 2, 65, 88
1, 3983, Note_on_c, 2, 81, 107
1, 3983, Note_on_c, 2, 53, 106
1, 3983, Note_on_c, 2, 77, 89
1, 3983, Note_on_c, 2, 72, 88
1, 3983, Note_on_c, 9, 69, 95
1, 3983, Note_on_c, 9, 54, 90
1, 3983, Note_on_c, 9, 42, 127
1, 3999, Note_off_c, 9, 69, 0
1, 3999, Note_off_c, 9, 42, 0
1, 4007, Note_off_c, 9, 54, 0
1, 4011, Note_on_c, 9, 63, 78
1, 4011, Note_on_c, 9, 42, 117
1, 4020, Note_off_c, 9, 42, 0
1, 4021, Note_off_c, 9, 63, 0
1, 4031, Note_on_c, 9, 63, 3
1, 4031, Note_on_c, 9, 42, 113
1, 4046, Note_off_c, 9, 63, 0
1, 4046, Note_off_c, 9, 42, 0
1, 4059, Note_on_c, 9, 63, 76
1, 4059, Note_on_c, 9, 42, 111
1, 4068, Note_off_c, 9, 42, 0
1, 4069, Note_off_c, 9, 63, 0
1, 4079, Note_on_c, 9, 69, 95
1, 4079, Note_on_c, 9, 54, 90
1, 4079, Note_on_c, 9, 62, 77
1, 4079, Note_on_c, 9, 42, 127
1, 4094, Note_off_c, 9, 62, 0
1, 4094, Note_off_c, 9, 42, 0
1, 4097, Note_off_c, 9, 69, 0
1, 4103, Note_off_c, 9, 54, 0
1, 4107, Note_on_c, 9, 44, 115
1, 4116, Note_off_c, 9, 44, 0
1, 4127, Note_on_c, 9, 63, 72
1, 4127, Note_on_c, 9, 42, 116
1, 4127, Note_on_c, 9, 37, 125
1, 4127, Note_on_c, 9, 35, 124
1, 4133, Note_off_c, 9, 42, 0
1, 4139, Note_off_c, 9, 35, 0
1, 4141, Note_off_c, 9, 63, 0
1, 4143, Note_off_c, 9, 37, 0
1, 4155, Note_on_c, 9, 44, 117
1, 4165, Note_off_c, 9, 44, 0
1, 4169, Note_off_c, 2, 65, 0
1, 4169, Note_off_c, 2, 81, 0
1, 4169, Note_off_c, 2, 53, 0
1, 4169, Note_off_c, 2, 77, 0
1, 4169, Note_off_c, 2, 72, 0
1, 4175, Note_on_c, 0, 31, 99
1, 4175, Note_on_c, 2, 67, 115
1, 4175, Note_on_c, 2, 72, 127
1, 4175, Note_on_c, 2, 77, 127
1, 4175, Note_on_c, 2, 81, 127
1, 4175, Note_on_c, 9, 69, 93
1, 4175, Note_on_c, 9, 54, 88
1, 4175, Note_on_c, 9, 42, 127
1, 4179, Note_off_c, 0, 29, 0
1, 4181, Note_off_c, 9, 42, 0
1, 4191, Note_off_c, 9, 69, 0
1, 4199, Note_off_c, 9, 54, 0
1, 4203, Note_on_c, 9, 63, 39
1, 4203, Note_on_c, 9, 42, 115
1, 4203, Note_on_c, 9, 37, 124
1, 4206, Note_off_c, 9, 42, 0
1, 4213, Note_off_c, 9, 63, 0
1, 4213, Note_off_c, 9, 37, 0
1, 4215, Note_off_c, 2, 81, 0
1, 4217, Note_off_c, 2, 77, 0
1, 4219, Note_off_c, 0, 31, 0
1, 4219, Note_off_c, 2, 72, 0
1, 4220, Note_off_c, 2, 67, 0
1, 4223, Note_on_c, 0, 36, 105
1, 4223, Note_on_c, 2, 72, 89
1, 4223, Note_on_c, 2, 60, 97
1, 4223, Note_on_c, 2, 76, 99
1, 4223, Note_on_c, 2, 79, 101
1, 4223, Note_on_c, 9, 63, 74
1, 4223, Note_on_c, 9, 42, 119
1, 4225, Note_on_c, 2, 67, 85
1, 4233, Note_off_c, 2, 67, 0
1, 4233, Note_on_c, 2, 67, 85
1, 4237, Note_off_c, 2, 67, 0
1, 4238, Note_off_c, 9, 63, 0
1, 4239, Note_off_c, 9, 42, 0
1, 4251, Note_on_c, 9, 63, 63
1, 4251, Note_on_c, 9, 42, 105
1, 4260, Note_off_c, 9, 42, 0
1, 4261, Note_off_c, 9, 63, 0
1, 4271, Note_on_c, 9, 69, 95
1, 4271, Note_on_c, 9, 54, 90
1, 4271, Note_on_c, 9, 62, 78
1, 4271, Note_on_c, 9, 42, 127
1, 4286, Note_off_c, 9, 62, 0
1, 4286, Note_off_c, 9, 42, 0
1, 4288, Note_off_c, 9, 69, 0
1, 4293, Note_off_c, 9, 54, 0
1, 4299, Note_on_c, 9, 42, 112
1, 4308, Note_off_c, 9, 42, 0
1, 4319, Note_on_c, 9, 63, 76
1, 4319, Note_on_c, 9, 46, 122
1, 4319, Note_on_c, 9, 37, 127
1, 4319, Note_on_c, 9, 35, 127
1, 4331, Note_off_c, 9, 35, 0
1, 4333, Note_off_c, 9, 63, 0
1, 4334, Note_off_c, 9, 46, 0
1, 4335, Note_off_c, 9, 37, 0
1, 4347, Note_on_c, 9, 44, 112
1, 4356, Note_off_c, 9, 44, 0
1, 4360, Note_off_c, 2, 79, 0
1, 4367, Note_on_c, 2, 79, 101
1, 4367, Note_on_c, 9, 69, 90
1, 4367, Note_on_c, 9, 54, 90
1, 4367, Note_on_c, 9, 42, 127
1, 4383, Note_off_c, 9, 69, 0
1, 4383, Note_off_c, 9, 42, 0
1, 4388, Note_off_c, 9, 54, 0
1, 4395, Note_on_c, 9, 63, 76
1, 4395, Note_on_c, 9, 42, 54
1, 4404, Note_off_c, 9, 42, 0
1, 4405, Note_off_c, 9, 63, 0
1, 4412, Note_off_c, 2, 79, 0
1, 4415, Note_off_c, 2, 76, 0
1, 4415, Note_on_c, 0, 41, 119
1, 4415, Note_on_c, 2, 81, 101
1, 4415, Note_on_c, 2, 53, 99
1, 4415, Note_on_c, 2, 69, 95
1, 4415, Note_on_c, 2, 77, 85
1, 4415, Note_on_c, 9, 63, 60
1, 4415, Note_on_c, 9, 42, 107
1, 4417, Note_off_c, 2, 60, 0
1, 4419, Note_off_c, 0, 36, 0
1, 4430, Note_off_c, 9, 63, 0
1, 4431, Note_off_c, 9, 42, 0
1, 4443, Note_on_c, 9, 63, 36
1, 4443, Note_on_c, 9, 42, 108
1, 4452, Note_off_c, 9, 42, 0
1, 4453, Note_off_c, 9, 63, 0
1, 4455, Note_off_c, 0, 41, 0
1, 4459, Note_off_c, 2, 77, 0
1, 4463, Note_off_c, 2, 53, 0
1, 4463, Note_off_c, 2, 69, 0
1, 4463, Note_on_c, 0, 40, 112
1, 4463, Note_on_c, 2, 52, 97
1, 4463, Note_on_c, 2, 76, 84
1, 4463, Note_on_c, 2, 67, 89
1, 4463, Note_on_c, 2, 79, 101
1, 4463, Note_on_c, 9, 69, 90
1, 4463, Note_on_c, 9, 54, 90
1, 4463, Note_on_c, 9, 62, 74
1, 4463, Note_on_c, 9, 42, 127
1, 4464, Note_off_c, 2, 81, 0
1, 4476, Note_off_c, 9, 69, 0
1, 4478, Note_off_c, 9, 62, 0
1, 4479, Note_off_c, 9, 42, 0
1, 4481, Note_off_c, 0, 40, 0
1, 4485, Note_off_c, 9, 54, 0
1, 4491, Note_on_c, 9, 42, 108
1, 4501, Note_off_c, 9, 42, 0
1, 4508, Note_off_c, 2, 79, 0
1, 4510, Note_off_c, 2, 67, 0
1, 4511, Note_on_c, 0, 38, 112
1, 4511, Note_on_c, 2, 77, 97
1, 4511, Note_on_c, 2, 65, 95
1, 4511, Note_on_c, 2, 50, 95
1, 4511, Note_on_c, 2, 74, 95
1, 4511, Note_on_c, 9, 63, 74
1, 4511, Note_on_c, 9, 46, 108
1, 4511, Note_on_c, 9, 37, 127
1, 4511, Note_on_c, 9, 35, 126
1, 4512, Note_off_c, 2, 76, 0
1, 4516, Note_off_c, 2, 52, 0
1, 4523, Note_off_c, 9, 35, 0
1, 4525, Note_off_c, 9, 63, 0
1, 4527, Note_off_c, 9, 46, 0
1, 4527, Note_off_c, 9, 37, 0
1, 4531, Note_off_c, 0, 38, 0
1, 4539, Note_on_c, 9, 42, 106
1, 4548, Note_off_c, 9, 42, 0
1, 4556, Note_off_c, 2, 74, 0
1, 4558, Note_off_c, 2, 50, 0
1, 4559, Note_off_c, 2, 65, 0
1, 4559, Note_on_c, 0, 36, 123
1, 4559, Note_on_c, 2, 76, 107
1, 4559, Note_on_c, 2, 48, 101
1, 4559, Note_on_c, 2, 67, 88
1, 4559, Note_on_c, 2, 64, 89
1, 4559, Note_on_c, 9, 69, 99
1, 4559, Note_on_c, 9, 54, 90
1, 4559, Note_on_c, 9, 42, 127
1, 4561, Note_off_c, 2, 77, 0
1, 4571, Note_off_c, 9, 69, 0
1, 4575, Note_off_c, 9, 42, 0
1, 4581, Note_off_c, 9, 54, 0
1, 4587, Note_on_c, 9, 42, 101
1, 4596, Note_off_c, 9, 42, 0
1, 4607, Note_on_c, 9, 63, 74
1, 4607, Note_on_c, 9, 42, 109
1, 4622, Note_off_c, 9, 63, 0
1, 4622, Note_off_c, 9, 42, 0
1, 4635, Note_on_c, 9, 63, 18
1, 4635, Note_on_c, 9, 42, 108
1, 4638, Note_off_c, 9, 42, 0
1, 4645, Note_off_c, 9, 63, 0
1, 4655, Note_on_c, 9, 69, 101
1, 4655, Note_on_c, 9, 54, 85
1, 4655, Note_on_c, 9, 42, 127
1, 4668, Note_off_c, 9, 69, 0
1, 4671, Note_off_c, 9, 42, 0
1, 4673, Note_off_c, 9, 54, 0
1, 4683, Note_on_c, 9, 62, 68
1, 4683, Note_on_c, 9, 42, 110
1, 4692, Note_off_c, 9, 42, 0
1, 4693, Note_off_c, 9, 62, 0
1, 4703, Note_on_c, 9, 62, 78
1, 4703, Note_on_c, 9, 46, 110
1, 4703, Note_on_c, 9, 37, 127
1, 4703, Note_on_c, 9, 35, 124
1, 4716, Note_off_c, 9, 35, 0
1, 4718, Note_off_c, 9, 62, 0
1, 4718, Note_off_c, 9, 46, 0
1, 4719, Note_off_c, 9, 37, 0
1, 4731, Note_on_c, 9, 63, 39
1, 4731, Note_on_c, 9, 42, 10
1, 4740, Note_off_c, 9, 42, 0
1, 4741, Note_off_c, 9, 63, 0
1, 4751, Note_on_c, 9, 69, 101
1, 4751, Note_on_c, 9, 54, 90
1, 4751, Note_on_c, 9, 42, 127
1, 4767, Note_off_c, 9, 69, 0
1, 4767, Note_off_c, 9, 54, 0
1, 4767, Note_off_c, 9, 42, 0
1, 4779, Note_on_c, 9, 63, 47
1, 4779, Note_on_c, 9, 42, 104
1, 4782, Note_off_c, 2, 64, 0
1, 4783, Note_off_c, 2, 72, 0
1, 4783, Note_off_c, 2, 67, 0
1, 4788, Note_off_c, 9, 42, 0
1, 4789, Note_off_c, 9, 63, 0
1, 4796, Note_off_c, 0, 36, 0
1, 4799, Note_off_c, 2, 48, 0
1, 4799, Note_on_c, 0, 31, 117
1, 4799, Note_on_c, 2, 79, 99
1, 4799, Note_on_c, 2, 71, 101
1, 4799, Note_on_c, 2, 67, 89
1, 4799, Note_on_c, 2, 55, 101
1, 4799, Note_on_c, 9, 63, 70
1, 4799, Note_on_c, 9, 42, 104
1, 4800, Note_off_c, 2, 76, 0
1, 4813, Note_off_c, 9, 63, 0
1, 4815, Note_off_c, 9, 42, 0
1, 4827, Note_on_c, 9, 63, 77
1, 4827, Note_on_c, 9, 42, 107
1, 4837, Note_off_c, 9, 63, 0
1, 4837, Note_off_c, 9, 42, 0
1, 4845, Note_off_c, 2, 55, 0
1, 4847, Note_off_c, 2, 67, 0
1, 4847, Note_on_c, 0, 33, 110
1, 4847, Note_on_c, 2, 69, 88
1, 4847, Note_on_c, 2, 57, 93
1, 4847, Note_on_c, 2, 72, 95
1, 4847, Note_on_c, 9, 69, 101
1, 4847, Note_on_c, 9, 54, 90
1, 4847, Note_on_c, 9, 62, 42
1, 4847, Note_on_c, 9, 42, 127
1, 4848, Note_off_c, 0, 31, 0
1, 4849, Note_off_c, 2, 71, 0
1, 4853, Note_off_c, 9, 42, 0
1, 4862, Note_off_c, 9, 62, 0
1, 4865, Note_off_c, 9, 69, 0
1, 4866, Note_off_c, 9, 54, 0
1, 4875, Note_on_c, 9, 62, 67
1, 4875, Note_on_c, 9, 42, 111
1, 4875, Note_on_c, 9, 42, 60
1, 4877, Note_off_c, 9, 42, 0
1, 4885, Note_off_c, 9, 62, 0
1, 4894, Note_off_c, 0, 33, 0
1, 4894, Note_off_c, 2, 72, 0
1, 4895, Note_on_c, 0, 35, 115
1, 4895, Note_on_c, 2, 74, 90
1, 4895, Note_on_c, 2, 59, 97
1, 4895, Note_on_c, 2, 71, 93
1, 4895, Note_on_c, 9, 42, 108
1, 4895, Note_on_c, 9, 35, 124
1, 4897, Note_off_c, 2, 69, 0
1, 4897, Note_off_c, 2, 57, 0
1, 4900, Note_off_c, 9, 42, 0
1, 4907, Note_off_c, 9, 35, 0
1, 4923, Note_on_c, 9, 62, 73
1, 4923, Note_on_c, 9, 42, 107
1, 4923, Note_on_c, 9, 42, 49
1, 4925, Note_off_c, 9, 42, 0
1, 4933, Note_off_c, 9, 62, 0
1, 4941, Note_off_c, 0, 35, 0
1, 4941, Note_off_c, 2, 71, 0
1, 4943, Note_on_c, 0, 31, 115
1, 4943, Note_on_c, 2, 67, 75
1, 4943, Note_on_c, 2, 71, 95
1, 4943, Note_on_c, 2, 55, 101
1, 4943, Note_on_c, 9, 69, 97
1, 4943, Note_on_c, 9, 54, 90
1, 4943, Note_on_c, 9, 42, 127
1, 4945, Note_off_c, 2, 74, 0
1, 4945, Note_off_c, 2, 59, 0
1, 4948, Note_off_c, 9, 42, 0
1, 4958, Note_off_c, 9, 69, 0
1, 4967, Note_off_c, 9, 54, 0
1, 4971, Note_on_c, 9, 62, 74
1, 4971, Note_on_c, 9, 42, 109
1, 4971, Note_on_c, 9, 42, 76
1, 4973, Note_off_c, 9, 42, 0
1, 4977, Note_off_c, 2, 79, 0
1, 4980, Note_off_c, 2, 55, 0
1, 4981, Note_off_c, 9, 62, 0
1, 4987, Note_off_c, 0, 31, 0
1, 4988, Note_off_c, 2, 71, 0
1, 4989, Note_off_c, 2, 67, 0
1, 4991, Note_on_c, 0, 36, 123
1, 4991, Note_on_c, 2, 79, 106
1, 4991, Note_on_c, 2, 60, 107
1, 4991, Note_on_c, 2, 76, 97
1, 4991, Note_on_c, 2, 72, 84
1, 4991, Note_on_c, 9, 63, 79
1, 4991, Note_on_c, 9, 42, 119
1, 5005, Note_off_c, 9, 42, 0
1, 5006, Note_off_c, 9, 63, 0
1, 5017, Note_on_c, 9, 42, 105
1, 5029, Note_off_c, 9, 42, 0
1, 5039, Note_on_c, 9, 69, 95
1, 5039, Note_on_c, 9, 54, 90
1, 5039, Note_on_c, 9, 63, 70
1, 5039, Note_on_c, 9, 42, 127
1, 5053, Note_off_c, 9, 42, 0
1, 5054, Note_off_c, 9, 63, 0
1, 5059, Note_off_c, 9, 69, 0
1, 5059, Note_off_c, 9, 54, 0
1, 5065, Note_on_c, 9, 42, 109
1, 5077, Note_off_c, 9, 42, 0
1, 5087, Note_on_c, 9, 62, 77
1, 5087, Note_on_c, 9, 46, 122
1, 5087, Note_on_c, 9, 37, 127
1, 5087, Note_on_c, 9, 35, 127
1, 5099, Note_off_c, 9, 35, 0
1, 5100, Note_off_c, 9, 46, 0
1, 5102, Note_off_c, 9, 62, 0
1, 5103, Note_off_c, 9, 37, 0
1, 5113, Note_on_c, 9, 44, 112
1, 5125, Note_off_c, 9, 44, 0
1, 5135, Note_on_c, 9, 69, 95
1, 5135, Note_on_c, 9, 54, 88
1, 5135, Note_on_c, 9, 42, 127
1, 5149, Note_off_c, 9, 42, 0
1, 5158, Note_off_c, 9, 54, 0
1, 5159, Note_off_c, 9, 69, 0
1, 5161, Note_on_c, 9, 42, 116
1, 5163, Note_on_c, 9, 63, 69
1, 5173, Note_off_c, 9, 42, 0
1, 5174, Note_off_c, 9, 63, 0
1, 5180, Note_off_c, 2, 72, 0
1, 5183, Note_off_c, 2, 76, 0
1, 5183, Note_on_c, 0, 35, 119
1, 5183, Note_on_c, 2, 59, 101
1, 5183, Note_on_c, 2, 74, 106
1, 5183, Note_on_c, 2, 71, 93
1, 5183, Note_on_c, 9, 63, 39
1, 5183, Note_on_c, 9, 42, 117
1, 5185, Note_off_c, 0, 36, 0
1, 5188, Note_off_c, 2, 60, 0
1, 5197, Note_off_c, 9, 42, 0
1, 5198, Note_off_c, 9, 63, 0
1, 5209, Note_on_c, 9, 42, 105
1, 5211, Note_on_c, 9, 62, 71
1, 5221, Note_off_c, 9, 42, 0
1, 5221, Note_off_c, 9, 62, 0
1, 5231, Note_on_c, 9, 69, 97
1, 5231, Note_on_c, 9, 54, 90
1, 5231, Note_on_c, 9, 42, 127
1, 5245, Note_off_c, 9, 42, 0
1, 5249, Note_off_c, 9, 69, 0
1, 5252, Note_off_c, 9, 54, 0
1, 5257, Note_on_c, 9, 42, 112
1, 5259, Note_on_c, 9, 63, 67
1, 5269, Note_off_c, 9, 42, 0
1, 5269, Note_off_c, 9, 63, 0
1, 5279, Note_on_c, 9, 63, 72
1, 5279, Note_on_c, 9, 46, 108
1, 5279, Note_on_c, 9, 37, 127
1, 5279, Note_on_c, 9, 39, 69
1, 5279, Note_on_c, 9, 35, 126
1, 5291, Note_off_c, 9, 35, 0
1, 5293, Note_off_c, 9, 63, 0
1, 5293, Note_off_c, 9, 46, 0
1, 5295, Note_off_c, 9, 37, 0
1, 5295, Note_off_c, 9, 39, 0
1, 5305, Note_on_c, 9, 44, 115
1, 5317, Note_off_c, 9, 44, 0
1, 5327, Note_on_c, 9, 69, 97
1, 5327, Note_on_c, 9, 54, 90
1, 5327, Note_on_c, 9, 42, 127
1, 5341, Note_off_c, 9, 42, 0
1, 5345, Note_off_c, 9, 54, 0
1, 5346, Note_off_c, 9, 69, 0
1, 5353, Note_on_c, 9, 44, 116
1, 5355, Note_on_c, 9, 63, 39
1, 5365, Note_off_c, 9, 44, 0
1, 5365, Note_off_c, 9, 63, 0
1, 5372, Note_off_c, 2, 71, 0
1, 5373, Note_off_c, 2, 74, 0
1, 5374, Note_off_c, 2, 59, 0
1, 5375, Note_off_c, 2, 79, 0
1, 5375, Note_off_c, 0, 35, 0
1, 5375, Note_on_c, 0, 33, 112
1, 5375, Note_on_c, 2, 72, 85
1, 5375, Note_on_c, 2, 76, 95
1, 5375, Note_on_c, 2, 57, 101
1, 5375, Note_on_c, 2, 69, 95
1, 5375, Note_on_c, 9, 63, 77
1, 5375, Note_on_c, 9, 42, 108
1, 5389, Note_off_c, 9, 42, 0
1, 5390, Note_off_c, 9, 63, 0
1, 5401, Note_on_c, 9, 44, 117
1, 5413, Note_off_c, 9, 44, 0
1, 5423, Note_on_c, 9, 69, 97
1, 5423, Note_on_c, 9, 54, 85
1, 5423, Note_on_c, 9, 62, 76
1, 5423, Note_on_c, 9, 42, 127
1, 5437, Note_off_c, 9, 42, 0
1, 5438, Note_off_c, 9, 62, 0
1, 5439, Note_off_c, 9, 69, 0
1, 5447, Note_off_c, 9, 54, 0
1, 5449, Note_on_c, 9, 42, 105
1, 5453, Note_off_c, 0, 33, 0
1, 5459, Note_off_c, 2, 69, 0
1, 5460, Note_off_c, 2, 57, 0
1, 5461, Note_off_c, 9, 42, 0
1, 5463, Note_off_c, 2, 76, 0
1, 5471, Note_on_c, 0, 33, 110
1, 5471, Note_on_c, 2, 69, 99
1, 5471, Note_on_c, 2, 76, 84
1, 5471, Note_on_c, 2, 57, 101
1, 5471, Note_on_c, 9, 63, 80
1, 5471, Note_on_c, 9, 46, 113
1, 5471, Note_on_c, 9, 37, 127
1, 5471, Note_on_c, 9, 35, 124
1, 5484, Note_off_c, 9, 35, 0
1, 5485, Note_off_c, 9, 63, 0
1, 5485, Note_off_c, 9, 46, 0
1, 5487, Note_off_c, 9, 37, 0
1, 5491, Note_off_c, 0, 33, 0
1, 5492, Note_off_c, 2, 57, 0
1, 5497, Note_on_c, 9, 44, 118
1, 5509, Note_off_c, 9, 44, 0
1, 5511, Note_off_c, 2, 76, 0
1, 5513, Note_off_c, 2, 72, 0
1, 5513, Note_off_c, 2, 69, 0
1, 5519, Note_on_c, 0, 29, 119
1, 5519, Note_on_c, 2, 65, 88
1, 5519, Note_on_c, 2, 81, 107
1, 5519, Note_on_c, 2, 53, 106
1, 5519, Note_on_c, 2, 77, 89
1, 5519, Note_on_c, 2, 72, 88
1, 5519, Note_on_c, 9, 69, 97
1, 5519, Note_on_c, 9, 54, 85
1, 5519, Note_on_c, 9, 42, 127
1, 5533, Note_off_c, 9, 69, 0
1, 5533, Note_off_c, 9, 42, 0
1, 5543, Note_off_c, 9, 54, 0
1, 5545, Note_on_c, 9, 44, 117
1, 5547, Note_on_c, 9, 63, 77
1, 5557, Note_off_c, 9, 44, 0
1, 5558, Note_off_c, 9, 63, 0
1, 5567, Note_on_c, 9, 63, 74
1, 5567, Note_on_c, 9, 42, 109
1, 5581, Note_off_c, 9, 63, 0
1, 5581, Note_off_c, 9, 42, 0
1, 5593, Note_on_c, 9, 42, 105
1, 5595, Note_on_c, 9, 63, 70
1, 5605, Note_off_c, 9, 42, 0
1, 5605, Note_off_c, 9, 63, 0
1, 5615, Note_on_c, 9, 69, 97
1, 5615, Note_on_c, 9, 54, 90
1, 5615, Note_on_c, 9, 62, 88
1, 5615, Note_on_c, 9, 42, 127
1, 5628, Note_off_c, 9, 42, 0
1, 5629, Note_off_c, 9, 62, 0
1, 5631, Note_off_c, 9, 69, 0
1, 5639, Note_off_c, 9, 54, 0
1, 5641, Note_on_c, 9, 42, 82
1, 5653, Note_off_c, 9, 42, 0
1, 5663, Note_on_c, 9, 63, 79
1, 5663, Note_on_c, 9, 46, 115
1, 5663, Note_on_c, 9, 37, 125
1, 5663, Note_on_c, 9, 35, 124
1, 5675, Note_off_c, 9, 35, 0
1, 5677, Note_off_c, 9, 63, 0
1, 5677, Note_off_c, 9, 46, 0
1, 5681, Note_off_c, 9, 37, 0
1, 5689, Note_on_c, 9, 44, 117
1, 5701, Note_off_c, 9, 44, 0
1, 5705, Note_off_c, 2, 65, 0
1, 5705, Note_off_c, 2, 81, 0
1, 5705, Note_off_c, 2, 53, 0
1, 5705, Note_off_c, 2, 77, 0
1, 5705, Note_off_c, 2, 72, 0
1, 5711, Note_on_c, 0, 31, 99
1, 5711, Note_on_c, 2, 93, 119
1, 5711, Note_on_c, 2, 89, 123
1, 5711, Note_on_c, 2, 84, 119
1, 5711, Note_on_c, 2, 67, 100
1, 5711, Note_on_c, 9, 69, 99
1, 5711, Note_on_c, 9, 54, 90
1, 5711, Note_on_c, 9, 42, 127
1, 5715, Note_off_c, 0, 29, 0
1, 5725, Note_off_c, 9, 42, 0
1, 5727, Note_off_c, 9, 69, 0
1, 5735, Note_off_c, 9, 54, 0
1, 5737, Note_on_c, 9, 44, 117
1, 5739, Note_on_c, 9, 37, 127
1, 5747, Note_off_c, 9, 37, 0
1, 5749, Note_off_c, 9, 44, 0
1, 5755, Note_off_c, 0, 31, 0
1, 5756, Note_off_c, 2, 67, 0
1, 5757, Note_off_c, 2, 93, 0
1, 5757, Note_off_c, 2, 89, 0
1, 5757, Note_off_c, 2, 84, 0
1, 5759, Note_on_c, 0, 36, 105
1, 5759, Note_on_c, 2, 84, 89
1, 5759, Note_on_c, 2, 60, 97
1, 5759, Note_on_c, 2, 88, 99
1, 5759, Note_on_c, 2, 91, 101
1, 5759, Note_on_c, 9, 63, 75
1, 5759, Note_on_c, 9, 42, 109
1, 5761, Note_on_c, 2, 67, 85
1, 5769, Note_off_c, 2, 67, 0
1, 5769, Note_on_c, 2, 67, 85
1, 5773, Note_off_c, 9, 42, 0
1, 5773, Note_off_c, 2, 67, 0
1, 5774, Note_off_c, 9, 63, 0
1, 5785, Note_on_c, 9, 44, 112
1, 5787, Note_on_c, 9, 63, 75
1, 5797, Note_off_c, 9, 44, 0
1, 5797, Note_off_c, 9, 63, 0
1, 5807, Note_on_c, 9, 69, 97
1, 5807, Note_on_c, 9, 54, 85
1, 5807, Note_on_c, 9, 62, 85
1, 5807, Note_on_c, 9, 42, 127
1, 5821, Note_off_c, 9, 42, 0
1, 5822, Note_off_c, 9, 62, 0
1, 5824, Note_off_c, 9, 69, 0
1, 5831, Note_off_c, 9, 54, 0
1, 5833, Note_on_c, 9, 42, 110
1, 5845, Note_off_c, 9, 42, 0
1, 5855, Note_on_c, 9, 63, 78
1, 5855, Note_on_c, 9, 46, 108
1, 5855, Note_on_c, 9, 37, 127
1, 5855, Note_on_c, 9, 35, 127
1, 5867, Note_off_c, 9, 35, 0
1, 5869, Note_off_c, 9, 46, 0
1, 5870, Note_off_c, 9, 63, 0
1, 5871, Note_off_c, 9, 37, 0
1, 5881, Note_on_c, 9, 44, 112
1, 5893, Note_off_c, 9, 44, 0
1, 5896, Note_off_c, 2, 91, 0
1, 5903, Note_on_c, 2, 79, 101
1, 5903, Note_on_c, 9, 69, 97
1, 5903, Note_on_c, 9, 54, 90
1, 5903, Note_on_c, 9, 42, 127
1, 5917, Note_off_c, 9, 42, 0
1, 5920, Note_off_c, 9, 69, 0
1, 5927, Note_off_c, 9, 54, 0
1, 5929, Note_on_c, 9, 42, 107
1, 5931, Note_on_c, 9, 63, 80
1, 5941, Note_off_c, 9, 42, 0
1, 5942, Note_off_c, 9, 63, 0
1, 5948, Note_off_c, 2, 79, 0
1, 5951, Note_off_c, 2, 88, 0
1, 5951, Note_on_c, 0, 41, 119
1, 5951, Note_on_c, 2, 81, 101
1, 5951, Note_on_c, 2, 53, 99
1, 5951, Note_on_c, 2, 69, 95
1, 5951, Note_on_c, 2, 77, 85
1, 5951, Note_on_c, 9, 63, 77
1, 5951, Note_on_c, 9, 42, 117
1, 5953, Note_off_c, 2, 60, 0
1, 5955, Note_off_c, 0, 36, 0
1, 5965, Note_off_c, 9, 42, 0
1, 5966, Note_off_c, 9, 63, 0
1, 5977, Note_on_c, 9, 42, 107
1, 5979, Note_on_c, 9, 63, 68
1, 5989, Note_off_c, 9, 42, 0
1, 5989, Note_off_c, 9, 63, 0
1, 5991, Note_off_c, 0, 41, 0
1, 5995, Note_off_c, 2, 77, 0
1, 5999, Note_off_c, 2, 53, 0
1, 5999, Note_off_c, 2, 69, 0
1, 5999, Note_on_c, 0, 40, 112
1, 5999, Note_on_c, 2, 52, 97
1, 5999, Note_on_c, 2, 76, 84
1, 5999, Note_on_c, 2, 67, 89
1, 5999, Note_on_c, 2, 79, 101
1, 5999, Note_on_c, 9, 69, 97
1, 5999, Note_on_c, 9, 54, 90
1, 5999, Note_on_c, 9, 62, 79
1, 5999, Note_on_c, 9, 42, 127
1, 6000, Note_off_c, 2, 81, 0
1, 6013, Note_off_c, 9, 42, 0
1, 6014, Note_off_c, 9, 69, 0
1, 6014, Note_off_c, 9, 62, 0
1, 6017, Note_off_c, 0, 40, 0
1, 6022, Note_off_c, 9, 54, 0
1, 6025, Note_on_c, 9, 42, 112
1, 6027, Note_on_c, 9, 37, 100
1, 6035, Note_off_c, 9, 37, 0
1, 6037, Note_off_c, 9, 42, 0
1, 6044, Note_off_c, 2, 79, 0
1, 6046, Note_off_c, 2, 67, 0
1, 6047, Note_on_c, 0, 38, 112
1, 6047, Note_on_c, 2, 77, 97
1, 6047, Note_on_c, 2, 65, 95
1, 6047, Note_on_c, 2, 50, 95
1, 6047, Note_on_c, 2, 74, 95
1, 6047, Note_on_c, 9, 63, 81
1, 6047, Note_on_c, 9, 46, 115
1, 6047, Note_on_c, 9, 37, 127
1, 6047, Note_on_c, 9, 35, 126
1, 6048, Note_off_c, 2, 76, 0
1, 6052, Note_off_c, 2, 52, 0
1, 6059, Note_off_c, 9, 35, 0
1, 6061, Note_off_c, 9, 63, 0
1, 6061, Note_off_c, 9, 46, 0
1, 6065, Note_off_c, 9, 37, 0
1, 6067, Note_off_c, 0, 38, 0
1, 6073, Note_on_c, 9, 44, 115
1, 6085, Note_off_c, 9, 44, 0
1, 6092, Note_off_c, 2, 74, 0
1, 6094, Note_off_c, 2, 50, 0
1, 6095, Note_off_c, 2, 65, 0
1, 6095, Note_on_c, 0, 36, 123
1, 6095, Note_on_c, 2, 76, 107
1, 6095, Note_on_c, 2, 48, 101
1, 6095, Note_on_c, 2, 67, 88
1, 6095, Note_on_c, 2, 64, 89
1, 6095, Note_on_c, 9, 69, 90
1, 6095, Note_on_c, 9, 54, 90
1, 6095, Note_on_c, 9, 42, 127
1, 6097, Note_off_c, 2, 77, 0
1, 6109, Note_off_c, 9, 42, 0
1, 6112, Note_off_c, 9, 69, 0
1, 6113, Note_off_c, 9, 54, 0
1, 6121, Note_on_c, 9, 44, 116
1, 6133, Note_off_c, 9, 44, 0
1, 6143, Note_on_c, 9, 42, 115
1, 6144, Note_on_c, 9, 63, 85
1, 6156, Note_off_c, 9, 42, 0
1, 6157, Note_off_c, 9, 63, 0
1, 6169, Note_on_c, 9, 44, 117
1, 6173, Note_on_c, 9, 63, 75
1, 6175, Note_on_c, 9, 66, 110
1, 6181, Note_off_c, 9, 44, 0
1, 6186, Note_off_c, 9, 63, 0
1, 6188, Note_off_c, 9, 66, 0
1, 6191, Note_on_c, 9, 66, 104
1, 6191, Note_on_c, 9, 69, 97
1, 6191, Note_on_c, 9, 54, 88
1, 6191, Note_on_c, 9, 42, 127
1, 6192, Note_on_c, 9, 62, 88
1, 6203, Note_off_c, 9, 66, 0
1, 6205, Note_off_c, 9, 42, 0
1, 6205, Note_off_c, 9, 62, 0
1, 6207, Note_on_c, 9, 66, 101
1, 6209, Note_off_c, 9, 69, 0
1, 6215, Note_off_c, 9, 54, 0
1, 6217, Note_on_c, 9, 42, 115
1, 6220, Note_off_c, 9, 66, 0
1, 6223, Note_on_c, 9, 66, 114
1, 6229, Note_off_c, 9, 42, 0
1, 6236, Note_off_c, 9, 66, 0
1, 6239, Note_on_c, 9, 65, 124
1, 6239, Note_on_c, 9, 46, 119
1, 6239, Note_on_c, 9, 37, 126
1, 6239, Note_on_c, 9, 35, 124
1, 6240, Note_on_c, 9, 63, 81
1, 6252, Note_off_c, 9, 65, 0
1, 6252, Note_off_c, 9, 35, 0
1, 6253, Note_off_c, 9, 46, 0
1, 6253, Note_off_c, 9, 63, 0
1, 6257, Note_off_c, 9, 37, 0
1, 6265, Note_on_c, 9, 44, 118
1, 6271, Note_on_c, 9, 65, 115
1, 6277, Note_off_c, 9, 44, 0
1, 6283, Note_off_c, 9, 65, 0
1, 6287, Note_on_c, 9, 69, 95
1, 6287, Note_on_c, 9, 54, 90
1, 6287, Note_on_c, 9, 42, 127
1, 6301, Note_off_c, 9, 42, 0
1, 6305, Note_off_c, 9, 69, 0
1, 6307, Note_on_c, 9, 65, 127
1, 6311, Note_off_c, 9, 54, 0
1, 6313, Note_on_c, 9, 44, 117
1, 6318, Note_off_c, 2, 64, 0
1, 6318, Note_on_c, 9, 63, 86
1, 6319, Note_off_c, 2, 84, 0
1, 6319, Note_off_c, 2, 67, 0
1, 6319, Note_off_c, 9, 65, 0
1, 6325, Note_off_c, 9, 44, 0
1, 6331, Note_off_c, 9, 63, 0
1, 6332, Note_off_c, 0, 36, 0
1, 6334, Note_on_c, 9, 63, 74
1, 6335, Note_off_c, 2, 48, 0
1, 6335, Note_on_c, 0, 31, 117
1, 6335, Note_on_c, 2, 79, 94
1, 6335, Note_on_c, 2, 83, 98
1, 6335, Note_on_c, 9, 42, 125
1, 6336, Note_off_c, 2, 76, 0
1, 6341, Note_on_c, 9, 65, 127
1, 6347, Note_off_c, 9, 63, 0
1, 6349, Note_off_c, 9, 42, 0
1, 6354, Note_off_c, 9, 65, 0
1, 6361, Note_on_c, 9, 44, 115
1, 6365, Note_on_c, 9, 63, 81
1, 6367, Note_on_c, 9, 62, 77
1, 6373, Note_off_c, 9, 44, 0
1, 6377, Note_off_c, 9, 63, 0
1, 6380, Note_off_c, 9, 62, 0
1, 6383, Note_off_c, 2, 79, 0
1, 6383, Note_off_c, 2, 83, 0
1, 6383, Note_on_c, 0, 33, 110
1, 6383, Note_on_c, 2, 81, 105
1, 6383, Note_on_c, 2, 77, 101
1, 6383, Note_on_c, 9, 69, 89
1, 6383, Note_on_c, 9, 54, 85
1, 6383, Note_on_c, 9, 42, 127
1, 6384, Note_off_c, 0, 31, 0
1, 6397, Note_off_c, 9, 42, 0
1, 6402, Note_off_c, 9, 69, 0
1, 6403, Note_on_c, 9, 63, 72
1, 6407, Note_off_c, 9, 54, 0
1, 6407, Note_on_c, 9, 62, 78
1, 6411, Note_on_c, 9, 42, 106
1, 6411, Note_on_c, 9, 42, 107
1, 6413, Note_off_c, 9, 42, 0
1, 6415, Note_off_c, 9, 63, 0
1, 6418, Note_off_c, 9, 62, 0
1, 6430, Note_off_c, 0, 33, 0
1, 6431, Note_off_c, 2, 81, 0
1, 6431, Note_off_c, 2, 77, 0
1, 6431, Note_on_c, 0, 35, 115
1, 6431, Note_on_c, 2, 79, 123
1, 6431, Note_on_c, 2, 76, 112
1, 6431, Note_on_c, 9, 57, 127
1, 6431, Note_on_c, 9, 42, 113
1, 6431, Note_on_c, 9, 37, 127
1, 6431, Note_on_c, 9, 40, 127
1, 6431, Note_on_c, 9, 35, 124
1, 6436, Note_off_c, 9, 42, 0
1, 6440, Note_on_c, 9, 63, 88
1, 6441, Note_on_c, 9, 62, 88
1, 6443, Note_off_c, 9, 35, 0
1, 6446, Note_off_c, 9, 57, 0
1, 6446, Note_off_c, 9, 40, 0
1, 6449, Note_off_c, 9, 37, 0
1, 6456, Note_off_c, 9, 63, 0
1, 6457, Note_off_c, 9, 62, 0
1, 6459, Note_on_c, 9, 42, 112
1, 6459, Note_on_c, 9, 42, 108
1, 6461, Note_off_c, 9, 42, 0
1, 6477, Note_off_c, 0, 35, 0
1, 6479, Note_off_c, 2, 79, 0
1, 6479, Note_off_c, 2, 76, 0
1, 6479, Note_on_c, 0, 31, 115
1, 6479, Note_on_c, 2, 74, 112
1, 6479, Note_on_c, 2, 77, 119
1, 6479, Note_on_c, 9, 69, 95
1, 6479, Note_on_c, 9, 54, 85
1, 6479, Note_on_c, 9, 42, 105
1, 6484, Note_off_c, 9, 42, 0
1, 6494, Note_off_c, 9, 69, 0
1, 6499, Note_off_c, 9, 54, 0
1, 6507, Note_on_c, 9, 42, 107
1, 6510, Note_off_c, 9, 42, 0
1, 6523, Note_off_c, 0, 31, 0
1, 6527, Note_off_c, 2, 74, 0
1, 6527, Note_off_c, 2, 77, 0
1, 6527, Note_on_c, 0, 36, 123
1, 6527, Note_on_c, 2, 79, 106
1, 6527, Note_on_c, 2, 60, 107
1, 6527, Note_on_c, 2, 76, 97
1, 6527, Note_on_c, 2, 72, 84
1, 6527, Note_on_c, 2, 71, 84
1, 6527, Note_on_c, 9, 63, 70
1, 6527, Note_on_c, 9, 42, 119
1, 6528, Note_off_c, 2, 71, 0
1, 6542, Note_off_c, 9, 63, 0
1, 6543, Note_off_c, 9, 42, 0
1, 6555, Note_on_c, 9, 63, 63
1, 6555, Note_on_c, 9, 42, 105
1, 6564, Note_off_c, 9, 42, 0
1, 6565, Note_off_c, 9, 63, 0
1, 6575, Note_on_c, 9, 69, 84
1, 6575, Note_on_c, 9, 54, 90
1, 6575, Note_on_c, 9, 62, 76
1, 6575, Note_on_c, 9, 42, 127
1, 6590, Note_off_c, 9, 62, 0
1, 6590, Note_off_c, 9, 42, 0
1, 6594, Note_off_c, 9, 69, 0
1, 6599, Note_off_c, 9, 54, 0
1, 6603, Note_on_c, 9, 42, 112
1, 6612, Note_off_c, 9, 42, 0
1, 6623, Note_on_c, 9, 63, 72
1, 6623, Note_on_c, 9, 46, 119
1, 6623, Note_on_c, 9, 37, 127
1, 6623, Note_on_c, 9, 35, 127
1, 6635, Note_off_c, 9, 35, 0
1, 6638, Note_off_c, 9, 63, 0
1, 6639, Note_off_c, 9, 37, 0
1, 6640, Note_off_c, 9, 46, 0
1, 6651, Note_on_c, 9, 44, 112
1, 6660, Note_off_c, 9, 44, 0
1, 6671, Note_on_c, 9, 69, 95
1, 6671, Note_on_c, 9, 54, 88
1, 6671, Note_on_c, 9, 42, 127
1, 6687, Note_off_c, 9, 42, 0
1, 6693, Note_off_c, 9, 69, 0
1, 6695, Note_off_c, 9, 54, 0
1, 6699, Note_on_c, 9, 63, 74
1, 6699, Note_on_c, 9, 42, 54
1, 6708, Note_off_c, 9, 42, 0
1, 6709, Note_off_c, 9, 63, 0
1, 6716, Note_off_c, 2, 72, 0
1, 6719, Note_off_c, 2, 76, 0
1, 6719, Note_on_c, 0, 35, 119
1, 6719, Note_on_c, 2, 59, 101
1, 6719, Note_on_c, 2, 74, 106
1, 6719, Note_on_c, 2, 71, 93
1, 6719, Note_on_c, 9, 63, 30
1, 6719, Note_on_c, 9, 42, 107
1, 6721, Note_off_c, 0, 36, 0
1, 6724, Note_off_c, 2, 60, 0
1, 6733, Note_off_c, 9, 63, 0
1, 6735, Note_off_c, 9, 42, 0
1, 6747, Note_on_c, 9, 63, 42
1, 6747, Note_on_c, 9, 42, 108
1, 6756, Note_off_c, 9, 42, 0
1, 6757, Note_off_c, 9, 63, 0
1, 6767, Note_on_c, 9, 69, 90
1, 6767, Note_on_c, 9, 54, 85
1, 6767, Note_on_c, 9, 62, 76
1, 6767, Note_on_c, 9, 42, 127
1, 6782, Note_off_c, 9, 62, 0
1, 6783, Note_off_c, 9, 42, 0
1, 6789, Note_off_c, 9, 69, 0
1, 6791, Note_off_c, 9, 54, 0
1, 6795, Note_on_c, 9, 42, 115
1, 6805, Note_off_c, 9, 42, 0
1, 6815, Note_on_c, 9, 63, 80
1, 6815, Note_on_c, 9, 46, 116
1, 6815, Note_on_c, 9, 37, 127
1, 6815, Note_on_c, 9, 35, 126
1, 6827, Note_off_c, 9, 35, 0
1, 6830, Note_off_c, 9, 63, 0
1, 6830, Note_off_c, 9, 37, 0
1, 6831, Note_off_c, 9, 46, 0
1, 6843, Note_on_c, 9, 42, 60
1, 6852, Note_off_c, 9, 42, 0
1, 6863, Note_on_c, 9, 69, 95
1, 6863, Note_on_c, 9, 54, 88
1, 6863, Note_on_c, 9, 42, 127
1, 6879, Note_off_c, 9, 42, 0
1, 6881, Note_off_c, 9, 69, 0
1, 6887, Note_off_c, 9, 54, 0
1, 6891, Note_on_c, 9, 42, 115
1, 6900, Note_off_c, 9, 42, 0
1, 6908, Note_off_c, 2, 71, 0
1, 6909, Note_off_c, 2, 74, 0
1, 6910, Note_off_c, 2, 59, 0
1, 6911, Note_off_c, 2, 79, 0
1, 6911, Note_off_c, 0, 35, 0
1, 6911, Note_on_c, 0, 33, 112
1, 6911, Note_on_c, 2, 72, 85
1, 6911, Note_on_c, 2, 76, 95
1, 6911, Note_on_c, 2, 57, 101
1, 6911, Note_on_c, 2, 69, 95
1, 6911, Note_on_c, 9, 63, 72
1, 6911, Note_on_c, 9, 42, 114
1, 6926, Note_off_c, 9, 63, 0
1, 6927, Note_off_c, 9, 42, 0
1, 6939, Note_on_c, 9, 63, 72
1, 6939, Note_on_c, 9, 44, 117
1, 6948, Note_off_c, 9, 44, 0
1, 6949, Note_off_c, 9, 63, 0
1, 6959, Note_on_c, 9, 69, 95
1, 6959, Note_on_c, 9, 54, 90
1, 6959, Note_on_c, 9, 62, 74
1, 6959, Note_on_c, 9, 42, 127
1, 6974, Note_off_c, 9, 62, 0
1, 6975, Note_off_c, 9, 42, 0
1, 6978, Note_off_c, 9, 69, 0
1, 6983, Note_off_c, 9, 54, 0
1, 6987, Note_on_c, 9, 42, 116
1, 6989, Note_off_c, 0, 33, 0
1, 6995, Note_off_c, 2, 69, 0
1, 6996, Note_off_c, 2, 57, 0
1, 6996, Note_off_c, 9, 42, 0
1, 6999, Note_off_c, 2, 76, 0
1, 7007, Note_on_c, 0, 33, 110
1, 7007, Note_on_c, 2, 69, 99
1, 7007, Note_on_c, 2, 76, 84
1, 7007, Note_on_c, 2, 57, 101
1, 7007, Note_on_c, 9, 63, 75
1, 7007, Note_on_c, 9, 46, 112
1, 7007, Note_on_c, 9, 37, 123
1, 7007, Note_on_c, 9, 35, 124
1, 7020, Note_off_c, 9, 35, 0
1, 7022, Note_off_c, 9, 63, 0
1, 7023, Note_off_c, 9, 46, 0
1, 7023, Note_off_c, 9, 37, 0
1, 7027, Note_off_c, 0, 33, 0
1, 7028, Note_off_c, 2, 57, 0
1, 7035, Note_on_c, 9, 63, 5
1, 7035, Note_on_c, 9, 42, 79
1, 7044, Note_off_c, 9, 42, 0
1, 7046, Note_off_c, 9, 63, 0
1, 7047, Note_off_c, 2, 76, 0
1, 7049, Note_off_c, 2, 72, 0
1, 7049, Note_off_c, 2, 69, 0
1, 7055, Note_on_c, 0, 29, 119
1, 7055, Note_on_c, 2, 65, 88
1, 7055, Note_on_c, 2, 81, 107
1, 7055, Note_on_c, 2, 53, 106
1, 7055, Note_on_c, 2, 77, 89
1, 7055, Note_on_c, 2, 72, 88
1, 7055, Note_on_c, 9, 69, 95
1, 7055, Note_on_c, 9, 54, 90
1, 7055, Note_on_c, 9, 42, 127
1, 7071, Note_off_c, 9, 69, 0
1, 7071, Note_off_c, 9, 42, 0
1, 7079, Note_off_c, 9, 54, 0
1, 7083, Note_on_c, 9, 63, 78
1, 7083, Note_on_c, 9, 42, 117
1, 7092, Note_off_c, 9, 42, 0
1, 7093, Note_off_c, 9, 63, 0
1, 7093, End_track
0, 0, End_of_file
